<?xml version="1.0" standalone="no"?>
<!DOCTYPE svg PUBLIC "-//W3C//DTD SVG 1.1//EN" "http://www.w3.org/Graphics/SVG/1.1/DTD/svg11.dtd" >
<!--
2014-3-3: Created.
-->
<svg xmlns="http://www.w3.org/2000/svg">
<metadata>
Created by FontForge 20120731 at Mon Mar  3 14:58:58 2014
 By Ryan Glover
Created by Ryan Glover with FontForge 2.0 (http://fontforge.sf.net)
</metadata>
<defs>
<font id="fontcustom" horiz-adv-x="512" >
  <font-face 
    font-family="fontcustom"
    font-weight="500"
    font-stretch="normal"
    units-per-em="512"
    panose-1="2 0 6 9 0 0 0 0 0 0"
    ascent="448"
    descent="-64"
    bbox="24.0654 -10.7471 500.692 390.802"
    underline-thickness="25.6"
    underline-position="-51.2"
    unicode-range="U+F100-F12C"
  />
    <missing-glyph />
    <glyph glyph-name="uniF129" unicode="&#xf129;" 
d="M455.423 183.906c0.919922 -62.9346 -7.94727 -98.1367 -7.94531 -98.1357c-2.82617 -16.5674 -18.9434 -32.2178 -35.5625 -34.957c0 0 -52.3633 -11.334 -155.921 -11.6367c-103.567 -0.307617 -156.251 11.4961 -156.251 11.4961
c-16.6426 2.64648 -33.4756 18.3398 -37.6104 34.6729c0 0 -10.8174 27.8447 -11.0264 100.633c-0.21582 72.7822 10.6865 98.2842 10.6865 98.2842c3.98047 16.3516 21.376 31.3145 38.0801 33.5732c0 0 86.0723 12.8281 152.256 12.6621
c66.1836 -0.167969 159.6 -12.9463 159.6 -12.9463c16.7285 -2.05566 32.4385 -17.2959 35.1055 -33.9502c0 0 7.66992 -36.7637 8.58887 -99.6953zM212.102 104.989l122.2 80.9883l-122.2 80.9893v-161.978z" />
    <glyph glyph-name="uniF12C" unicode="&#xf12c;" 
d="M164.659 326.066c0 0 33.8613 19.7002 45.3975 -1.29688c9.24512 -6.22754 33.1016 -135.512 37.7168 -161.171c4.60938 -25.6611 16.9189 -34.9883 24.6309 -24.1113c7.7002 10.8818 33.0811 36.5479 50.0176 76.9561c16.9307 40.4326 -5.3916 45.6133 -12.3213 43.2812
c-6.93457 -2.33594 -43.0879 -3.11133 -30.0156 12.4414c13.0908 15.5322 45.4219 43.5107 53.877 46.6201c16.1562 10.8984 40.0068 25.1475 60.0127 1.81738c12.3252 -9.34375 40.792 -43.542 13.0898 -94.0732c-27.7051 -50.5107 -136.216 -179.566 -136.216 -179.566
s-39.252 -26.4258 -55.4219 0c-16.1602 26.4355 -68.4834 164.806 -70.0225 181.91c-1.5459 17.1084 -6.16211 21.752 -14.6211 17.1084c-8.4668 -4.6709 -25.4072 -30.3223 -26.9414 -22.5566c-1.53613 7.76855 -16.9355 17.1123 -7.69629 32.6445
c9.23047 15.5928 61.5586 64.5645 68.5137 69.9961z" />
    <glyph glyph-name="uniF116" unicode="&#xf116;" 
d="M122.687 327.049l63.7227 63.7529s5.16016 -30.457 -5.63672 -53.4258c0 0 63.7461 -47.8018 124.221 -99.8311c0 0 41.71 16.4014 69.8271 12.6592l-76.4014 -76.3945l154.659 -177.165l-177.171 154.677l-76.3818 -76.3945
c-3.74023 28.1113 12.6426 69.8262 12.6426 69.8262c-52.0303 60.4795 -99.8193 124.214 -99.8193 124.214c-22.9639 -10.7764 -53.4258 -5.61035 -53.4258 -5.61035z" />
    <glyph glyph-name="uniF115" unicode="&#xf115;" 
d="M89.4287 117.044h333.142v-49.9717h-333.142v49.9717zM89.4287 316.928h333.142v-49.9707h-333.142v49.9707zM89.4287 216.986h333.142v-49.9707h-333.142v49.9707z" />
    <glyph glyph-name="uniF104" unicode="&#xf104;" 
d="M404.531 350.694c3.88867 0 7.04688 -3.15723 7.0459 -7.04688v-303.313c0 -3.8877 -3.1582 -7.02637 -7.0459 -7.02637h-303.294c-3.88867 0 -7.0459 3.13867 -7.0459 7.02637v303.313c0 3.88965 3.15723 7.04688 7.0459 7.04688h303.294zM113.883 330.982v-139.001
h138.697v139.001h-138.697zM391.887 53.2773h0.000976562v138.703h-138.992l-0.31543 -138.703h139.307z" />
    <glyph glyph-name="uniF117" unicode="&#xf117;" 
d="M278.757 108.802c-23.5801 0 -45.4082 11.8115 -53.2412 25.7217c0 0 -12.2295 -48.1104 -15.2891 -57.3857c-9.14746 -32.9209 -36.6543 -65.8369 -38.8477 -68.3848c-1.72461 -2.10449 -4.77441 -1.25781 -5.22461 0.857422
c-0.421875 4.20605 -7.41602 46.0078 0.874023 79.752c3.93359 16.8916 27.5078 113.952 27.5078 113.952s-6.57617 13.5146 -6.57617 33.3496c0 31.2295 18.3496 54.0244 41.4834 54.0244c19.6455 0 29.2324 -13.9268 29.2324 -31.2305
c0 -19.0156 -12.6807 -47.7031 -19.2285 -74.2979c-5.20215 -22.3682 11.7773 -40.5 34.501 -40.5c41.0107 0 68.5244 51.0713 68.5244 111.438c0 45.9902 -31.8652 80.1914 -89.9004 80.1914c-65.8984 0 -106.93 -47.2803 -106.93 -100.032
c0 -18.5664 5.66309 -31.2295 14.4092 -41.3613c3.91211 -4.66309 4.37402 -6.34375 3.05469 -11.4121c-0.907227 -4.20605 -3.51562 -13.4971 -4.38477 -16.8633c-1.30078 -5.49121 -5.65332 -7.19922 -10.8994 -5.49121
c-30.1162 12.2295 -44.0762 44.3154 -44.0762 80.1914c0 59.5107 51.4932 130.85 154.496 130.85c82.9014 -0.0224609 137.037 -57.8545 137.037 -119.879c0 -82.3037 -47.1367 -143.489 -116.522 -143.489z" />
    <glyph glyph-name="uniF126" unicode="&#xf126;" 
d="M465.749 363.812v-262.874c0 -42.6426 -32.5547 -77.3057 -72.5381 -77.3057h-14.0117c-40.002 0 -72.5645 34.6641 -72.5645 77.3057v96.332c0 14.9434 -10.8262 29.9307 -24.8828 29.9307h-104.553c-14.0518 0 -26.0645 -14.0771 -26.0645 -27.8848
c0 -14.2998 12.2109 -27.0605 26.6318 -27.8389l21.3213 -0.831055c39.7061 -2.22949 71.0146 -36.1699 69.7666 -75.7051c-1.27441 -39.3164 -34.4873 -71.3096 -74.0625 -71.3096h-159.997v45.2461h159.997c14.2158 0 26.5918 15.3516 26.9746 27.7275
c0.381836 12.2178 -11.1494 23.1338 -25.1797 23.9053l-21.3154 0.837891c-39.2832 2.15625 -71.252 37.1934 -71.252 77.9668c0 41.5332 32.5557 74.6094 72.5918 74.6094h103.121c40.0293 0 72.5645 -34.0127 72.5645 -76.6543v-96.332
c0 -14.959 11.418 -27.0859 25.4697 -27.0859h16.8496c14.0361 0 25.4492 12.127 25.4492 27.0859v262.874z" />
    <glyph glyph-name="uniF105" unicode="&#xf105;" 
d="M298.712 220.875l20.6328 -38.8457l71.6143 19.6025s-86.9082 62.0381 -190.999 31.6885l58.0342 -119.343l-211.051 -61.6182s-61.2959 136.538 77.0107 194.479l-26.7305 55.4238l65.582 7.57031l22.1201 -45.5527c1.34082 0.231445 2.53418 0.533203 3.8877 0.743164
c227.943 39.3789 304.371 -82.334 304.371 -82.334l-210.749 -61.542l-48.7939 100.527c23.5244 3.99902 45.6445 2.86914 65.0703 -0.798828zM104.036 123.091l70.29 19.2432l-31.4805 65.3086c-59.1611 -39.0137 -38.7881 -84.5244 -38.8096 -84.5518z" />
    <glyph glyph-name="uniF118" unicode="&#xf118;" 
d="M465.932 265.992c0 -8.12012 -2.88867 -17.3926 -10.9004 -26.0537c0 0 -15.2959 -23.0361 -46.5088 -33.9424c1.13867 -8.03027 1.75 -16.2031 1.75 -24.5273c0 -97.8193 -81.9385 -177.118 -183.019 -177.118c-101.087 0 -183.018 79.3184 -183.018 177.118
c0 97.8047 81.9502 177.104 183.018 177.104c19.8193 0 38.8975 -3.08496 56.7852 -8.71094l0.0136719 -107.021s-54.5205 30.1201 -103.274 -5.20703c-48.7676 -35.2988 -39.5908 -72.3486 -39.5908 -72.3486s2.29688 -58.4727 71.1016 -58.4727
c76.9307 0 98.7314 70.6279 98.7314 70.6279v161.492c14.8584 -7.41309 28.6406 -16.6641 41.877 -27.0889c32.7061 -20.4043 66.6934 -33.5771 105.572 -32.5723c-0.00195312 -0.0117188 7.46191 1.60254 7.46191 -13.2793z" />
    <glyph glyph-name="uniF108" unicode="&#xf108;" 
d="M262.443 202.237c10.6035 0 19.1748 0.598633 25.7031 1.82617c6.51758 1.22461 11.8252 3.30469 15.915 6.20508c4.0957 2.91016 7.35449 6.64551 9.79199 11.2285c2.43262 4.57812 4.54785 10.0918 6.36426 16.5117c1.53027 5.49609 2.75195 8.94629 3.64355 10.332
c0.923828 1.38086 2.89551 2.21777 5.90723 2.51855h4.10156c7.8877 -0.300781 11.8145 -4.89941 11.8145 -13.7549c0 -8.25098 -0.595703 -16.4385 -1.8125 -24.5205c-1.2207 -8.10352 -1.81641 -16.127 -1.81641 -24.0762c0 -7.05371 0.385742 -13.9912 1.13379 -20.875
c0.770508 -6.86719 1.13965 -13.832 1.13965 -20.832c0 -6.42676 -0.984375 -11.4717 -2.95605 -15.1309c-1.98145 -3.66504 -5.08594 -5.34766 -9.35645 -5.05176h-4.9834c-3.33691 -0.295898 -5.37305 0.78418 -6.14746 3.21484
c-0.765625 2.44336 -1.52441 5.58887 -2.27441 9.4043c-0.739258 3.81738 -1.88867 8.02051 -3.40332 12.5986c-1.51855 4.58008 -4.71191 9.02344 -9.55078 13.2979c-4.54688 3.99805 -10.0957 6.58008 -16.6074 7.79199
c-6.53418 1.22363 -15.6758 1.82617 -27.5264 1.82617h-32.3135v-69.2266c0 -10.3916 0.303711 -19.0361 0.908203 -25.9082c0.600586 -6.87207 2.5 -12.2812 5.69629 -16.2754c3.19336 -3.98242 8.24219 -6.78516 15.2285 -8.49219
c6.98926 -1.70605 16.9873 -2.5166 30.0186 -2.5166h17.7373c9.40234 0 18.334 0.598633 26.8428 1.8252c8.48828 1.20215 16.2139 3.66504 23.1982 7.33008c6.99609 3.64551 12.9648 8.76758 17.9795 15.3262c5.00879 6.54199 8.72559 15.166 11.1367 25.8633
c1.2168 5.19141 2.36719 8.07812 3.4082 8.70703c1.06738 0.601562 3.25977 1.05859 6.60059 1.36133h4.53613c7.58691 -0.302734 11.3789 -5.80469 11.3789 -16.4707c0 -7.32422 -1.66797 -16.0127 -4.99414 -26.0762
c-3.33594 -10.0703 -5.90723 -22.9121 -7.72266 -38.5137c-0.313477 -3.93066 -1.35645 -6.49219 -3.18262 -7.69922c-2.41797 -2.12988 -4.85645 -3.21387 -7.2832 -3.21387c-6.06055 0 -11.3691 0.395508 -15.916 1.13965
c-4.54199 0.775391 -10.8438 1.53418 -18.8711 2.28516c-8.0332 0.783203 -19.0371 1.53418 -32.9971 2.28809c-13.9502 0.757812 -33.1953 1.13867 -57.7539 1.13867c-15.167 0 -29.4189 -0.146484 -42.7627 -0.448242
c-13.3506 -0.302734 -25.4775 -0.517578 -36.374 -0.691406c-10.9307 -0.146484 -20.335 -0.390625 -28.2168 -0.695312c-7.88574 -0.294922 -14.0947 -0.446289 -18.6631 -0.446289c-8.80273 0 -13.2012 2.43164 -13.2012 7.3291v6.39453
c0.297852 5.18066 2.06348 8.47363 5.22949 9.86035c3.19824 1.34961 6.98535 2.34473 11.3789 2.95996c4.3877 0.626953 8.92969 1.60352 13.6465 2.98145c4.69629 1.3623 8.56445 4.80566 11.6143 10.3037c1.81641 3.35938 2.87305 8.31738 3.16602 14.8711
c0.303711 6.54883 0.447266 16.2539 0.447266 29.0439v164.77c0 11.292 -1.06738 20.5166 -3.19238 27.7021c-2.11426 7.1748 -8.62695 12.1289 -19.5557 14.8643c-4.87109 1.20703 -8.72363 2.04199 -11.6191 2.52441
c-2.88379 0.457031 -5.08008 0.992188 -6.58984 1.59668c-1.52539 0.594727 -2.59766 1.5918 -3.19238 2.97656c-0.606445 1.34961 -1.0459 3.72852 -1.35449 7.08301v4.11621c0.605469 4.57422 2.57031 7.39258 5.91699 8.47754
c3.34082 1.04883 8.18066 1.59375 14.5703 1.59375c7.27734 0 14.3906 -0.154297 21.3818 -0.458984c6.95898 -0.300781 14.3916 -0.533203 22.2793 -0.686523c7.87891 -0.143555 16.6045 -0.378906 26.1611 -0.682617
c9.55664 -0.314453 20.5391 -0.456055 32.9854 -0.456055c29.1162 0 52.165 0.209961 69.1602 0.691406c16.9629 0.448242 30.0957 0.899414 39.3496 1.35645c9.25879 0.452148 15.833 0.908203 19.7812 1.375c3.92969 0.458984 7.4248 0.694336 10.4482 0.694336
c1.51855 0 3.03711 -0.601562 4.54688 -1.83203c1.49902 -1.22754 2.27441 -2.74121 2.27441 -4.57422c0 -0.902344 -0.0927734 -1.89062 -0.248047 -2.97656c-0.143555 -1.06934 -0.374023 -3.05762 -0.6875 -5.94238
c-0.297852 -2.91211 -0.52832 -6.94629 -0.670898 -12.1191c-0.180664 -5.18164 -0.246094 -12.0664 -0.246094 -20.5967c0 -2.73438 0.246094 -5.50684 0.693359 -8.23535c0.445312 -2.74219 0.681641 -5.64746 0.681641 -8.69141
c0 -4.56055 -0.985352 -8.53418 -2.95605 -11.8906c-1.9707 -3.36523 -4.18164 -4.88965 -6.59961 -4.57227h-4.09082c-4.54688 -0.600586 -7.51367 -0.154297 -8.86816 1.39062c-1.37598 1.50391 -2.44238 3.62891 -3.19238 6.38477
c-0.774414 2.75098 -1.67871 6.19434 -2.71973 10.3096c-1.04199 4.11133 -3.41309 8.77148 -7.04102 13.9395c-6.99023 8.85645 -16.6133 14.4932 -28.8857 16.9463c-12.2705 2.45508 -26.1543 3.66016 -41.623 3.66016c-10.9365 0 -19.6465 -0.308594 -26.1641 -0.90918
c-6.50879 -0.600586 -11.5234 -1.89844 -15.0176 -3.89453c-3.48926 -2.00684 -5.67676 -4.8252 -6.59668 -8.49316c-0.901367 -3.66016 -1.37402 -8.39551 -1.37402 -14.2021v-88.0859h33.2744v-0.00195312z" />
    <glyph glyph-name="uniF101" unicode="&#xf101;" 
d="M327.134 293.624v24.3945h113.822v-24.3945h-113.822zM247.612 177.7c6.95215 -11.1006 10.4199 -24.6084 10.4199 -40.4883c0 -16.3955 -3.92773 -31.1064 -11.8926 -44.0967c-5.05469 -8.60059 -11.3623 -15.8887 -18.9434 -21.7197
c-8.53027 -6.75391 -18.626 -11.4033 -30.2432 -13.8887c-11.6309 -2.48535 -24.2461 -3.7168 -37.8105 -3.7168h-120.617v276.418h129.367c32.6084 -0.551758 55.7227 -10.292 69.3574 -29.4268c8.2041 -11.7666 12.2393 -25.8398 12.2393 -42.2021
c0 -16.9111 -4.12012 -30.4326 -12.3896 -40.7119c-4.58008 -5.76953 -11.3691 -11.0146 -20.3809 -15.7295c13.627 -5.1543 23.9707 -13.2666 30.8936 -24.4375zM99.499 285.497v-60.9736h55.2891c11.3408 0 20.5371 2.27246 27.6084 6.83887
c7.06641 4.55957 10.5986 12.665 10.5986 24.3027c0 12.8779 -4.68652 21.4004 -14.0449 25.499c-8.0498 2.86035 -18.3369 4.33301 -30.8379 4.33301h-48.6133zM183.475 107.642c11.7578 6.32227 17.6689 18.3506 17.6484 36.2119
c0 15.0439 -5.70703 25.4648 -17.083 31.0352c-6.37109 3.18457 -15.3623 4.81445 -26.8662 4.91309h-57.6748v-77.2344h56.7754c11.6738 0 20.708 1.64941 27.2002 5.07422zM471.758 185.141c1.3457 -9.10449 1.91797 -22.3076 1.6582 -39.5469h-140.257
c0.750977 -20.041 7.45508 -34.0312 20.1201 -42.0508c7.6377 -5.01367 16.9053 -7.47656 27.7568 -7.47656c11.4551 0 20.793 2.99512 27.9785 9.13867c3.91309 3.25098 7.35352 7.87891 10.3496 13.6582h51.417c-1.32422 -11.8096 -7.54004 -23.7949 -18.6543 -35.9922
c-17.2529 -19.3545 -41.4209 -29.0811 -72.4502 -29.0811c-25.6621 0 -48.2383 8.17773 -67.876 24.502c-19.5605 16.4092 -29.3721 42.9717 -29.3721 79.8262c0 34.5684 8.82031 61.0098 26.5195 79.4365c17.7402 18.4355 40.6494 27.6172 68.8955 27.6172
c16.7715 0 31.8496 -3.07227 45.3008 -9.31055c13.4355 -6.24316 24.5137 -16.0479 33.2588 -29.5127c7.90723 -11.8574 13.0117 -25.5713 15.3545 -41.208zM335.269 187.936v0.000976562h89.4326c-0.977539 12.001 -5.60742 21.0537 -13.8838 27.2559
c-8.23242 6.20801 -18.4902 9.33008 -30.7656 9.33008c-13.3438 0 -23.6592 -3.3418 -30.958 -9.90527c-7.36133 -6.52637 -11.9707 -15.4102 -13.8252 -26.6816z" />
    <glyph glyph-name="uniF112" unicode="&#xf112;" 
d="M346.99 325.663c46.1211 0 93.2002 -30.291 93.1982 -97.123c0 -47.4336 -29.0957 -82.1426 -41.4971 -98.9844c-15.5996 -21.25 -129.795 -115.795 -142.704 -115.795c-12.918 0 -130.53 99.0664 -143.451 115.795c-12.9062 16.7266 -40.7246 51.5508 -40.7246 98.9844
c0 66.832 47.0654 97.123 93.2227 97.123c46.0986 0 90.9541 -54.4512 90.9541 -54.4512s44.8799 54.4512 91.002 54.4512z" />
    <glyph glyph-name="uniF111" unicode="&#xf111;" 
d="M352.188 246.994c0 -32.6348 27.6914 -40.6523 27.6914 -40.6523s17.9629 -1.70312 58.124 -16.9268c40.168 -15.2158 39.5957 -63.0322 39.5957 -63.0322c0 -78.2949 -73.5693 -84.9941 -83.251 -84.9941c-68.6475 0 -89.3779 55.2363 -89.3779 55.2363
l-53.9297 122.354c-42.7109 72.9014 -92.7773 59.5723 -92.7773 59.5723c-70.5127 0 -87.7832 -73.0781 -87.7832 -94.5283v-20.5215c1.0791 -69.0576 46.416 -85.668 93.0469 -85.668s87.8223 48.0127 87.8223 48.0127l17.6611 -35.3682
c-54.6094 -55.4648 -105.482 -49.1309 -105.482 -49.1309c-115.145 0 -128.798 99.0938 -127.028 120.512v19.9629c-1.76953 88.8525 77.1445 135.161 120.249 135.161c43.1094 0 89.2822 -14.3145 125.356 -84.0049l58.5088 -126.726
c17.6865 -33.7373 52.2393 -30.5381 52.2393 -30.5381c30.54 0 44.1934 23.2812 45.7832 40.6982c1.62305 17.3906 9.04199 40.7959 -57.3711 56.5215c-66.3906 25.5576 -63.0312 69.8262 -63.0312 69.8262c0 68.5322 47.2832 74.4102 73.1914 76.3506
c39.1045 0 61.8066 -39.8662 61.8066 -39.8662s-9.78223 -18.5088 -20.623 -24.959c-2.55078 -1.52832 -4.89355 10.0186 -4.89355 10.0186c-11.0156 12.9268 -31.9395 20.6484 -31.9395 20.6484c-5.33301 0 -43.5879 -5.33691 -43.5879 -37.958z" />
    <glyph glyph-name="uniF128" unicode="&#xf128;" 
d="M409.66 244.417c4.7666 -103.147 -74.7852 -218.14 -215.601 -218.14c-42.8447 0 -82.7256 12.1562 -116.27 32.958c40.2402 -4.57031 80.3984 6.21191 112.309 30.3633c-33.1846 0.597656 -61.2061 21.7832 -70.8594 50.9219
c11.875 -2.17676 23.5654 -1.51758 34.2393 1.28027c-36.4678 7.07422 -61.6426 38.8428 -60.8291 72.7998c10.2178 -5.47852 21.9072 -8.78418 34.376 -9.17383c-33.7881 21.8447 -43.373 64.9639 -23.498 97.8828c37.4092 -44.3252 93.3008 -73.5156 156.342 -76.5859
c-11.0752 45.8789 24.9414 90.042 73.8936 90.042c21.8164 0 41.5391 -8.90332 55.3799 -23.1426c17.2686 3.25488 33.5273 9.37695 48.1562 17.7891c-5.6709 -17.1465 -17.6865 -31.5146 -33.3311 -40.5811c15.3457 1.77148 29.958 5.71973 43.5547 11.5146
c-10.2012 -14.6816 -23.0645 -27.5889 -37.8623 -37.9287z" />
    <glyph glyph-name="uniF10B" unicode="&#xf10b;" 
d="M331.728 191.851h-51.6621v-188.29h-76.5391v188.29h-36.4258v66.5664h36.4258v43.0518c0 30.7842 14.2803 78.9707 77.2979 78.9707l56.6455 -0.203125v-64.5811h-41.1641c-6.70996 0 -16.2295 -3.47754 -16.2295 -18.2002v-39.0371h58.3486z" />
    <glyph glyph-name="uniF12B" unicode="&#xf12b;" 
d="M440.19 154.443v-18.4551v-30.7529h-376.572v30.7529v18.4551v71.2979h48.7324v-71.2979h279.107v71.2979h48.7324v-71.2979z" />
    <glyph glyph-name="uniF114" unicode="&#xf114;" 
d="M316.548 200.859l107.07 92.876l-0.174805 -207.833zM254.942 179.801l-158.386 129.034l316.769 0.0107422zM195.222 200.859l-108.536 -111.711v204.588zM211.128 186.984l43.8145 -38.7676l43.8066 38.7676l114.576 -115.191h-316.769z" />
    <glyph glyph-name="uniF12A" unicode="&#xf12a;" 
d="M252.035 89.6172c0 29.4854 -26.9639 57.6201 -72.21 57.6201c-40.7422 0.453125 -75.293 -25.7061 -75.293 -56.0322c0 -30.9482 29.4141 -56.6963 70.2012 -56.6963c52.1211 -0.000976562 77.3018 24.1621 77.3018 55.1084zM170.702 346.768
c-27.3574 0.797852 -45.7207 -26.6357 -40.9775 -62.5156c4.70996 -35.8857 30.7207 -60.9238 58.0781 -61.7334c27.3623 -0.832031 43.0996 22.2598 38.374 58.1504c-4.72656 35.8477 -28.123 65.2607 -55.4746 66.0986zM176.402 19.0771
c-58.9541 0 -108.153 25.3936 -108.153 68.0996c0 32.9766 20.9131 75.7705 118.603 75.7705c-14.5068 11.7881 -18.0693 28.2969 -9.21289 46.1631c-57.1924 0 -86.4912 33.584 -86.4912 76.1963c0 41.7012 31.0596 79.6162 94.4404 79.6162h101.529l-22.6758 -23.7803
h-26.6514c18.791 -10.748 28.7998 -32.8721 28.7998 -57.291c0 -22.3994 -12.3838 -40.5566 -29.999 -54.1719c-31.3115 -24.1514 -23.3086 -37.6357 9.50781 -61.5078c32.3027 -24.1699 43.0088 -42.8154 43.0088 -71.4043c0 -35.0283 -32.0566 -77.6904 -112.705 -77.6904
zM421.15 294.793h-46.8359v-46.7393h-23.3975v46.7393h-46.8379v23.3809h46.8379v46.749h23.3975v-46.749h46.8359v-23.3809z" />
    <glyph glyph-name="uniF11D" unicode="&#xf11d;" 
d="M208.599 255.73c55.5254 42.9824 110.613 43.9062 110.613 43.9062l0.0244141 63.834l144.554 -106.471l-144.578 -109.749v65.5205s-33.1836 8.43848 -77.5518 -7.03027c-44.3633 -15.4648 -93.9775 -72.9502 -93.9775 -72.9502s5.41797 79.9805 60.916 122.939z
M65.5254 48.0176v251.706h150.508s-11.7529 -1.12793 -33.5166 -19.0625c-21.7559 -17.9307 -23.667 -21.0361 -23.667 -21.0361l-52.5547 0.00683594l-0.0175781 -170.222l275.361 0.0117188l0.0126953 38.7725l40.7695 34.2549l-0.03125 -114.432h-356.864z" />
    <glyph glyph-name="uniF106" unicode="&#xf106;" 
d="M160.787 275.958v37.582h45.0977v-37.582h-45.0977zM91.085 253.43v70.2148h43.5293v-208.038h-110.549v137.823h67.0195zM91.0713 152.658v62.6367h-22.7402v-62.6367h22.7402zM378.522 249.755v0.000976562h110.527l-0.461914 -206.178h-19.1914h-92.1445v38.6709
h67.7803l0.467773 29.7256h-66.9775v137.78zM443.67 151.538v62.6777h-22.6689v-62.6777h22.6689zM161.901 111.747v138.589h45.0898v-138.589h-45.0898zM235.051 250.584h110.569l0.759766 -210.575h-19.2334h-92.0957v38.6689h67.8018l-0.758789 34.127h-67.043v137.779z
M302.022 152.85v62.6787h-22.7334v-62.6787h22.7334z" />
    <glyph glyph-name="uniF122" unicode="&#xf122;" 
d="M188.331 76.2607c-19.0713 2.03516 -26.8037 4.49609 -26.8037 4.49609c-46.457 6.97949 -88.2822 51.8711 -93.084 98.9736l-2.90723 28.7881l2.68066 25.7109c4.91504 47.0117 46.9395 90.2637 93.8438 96.5762c0 0 32.3584 6.92285 93.1709 6.92285
c60.8057 0 84.6514 -6.31152 84.6514 -6.31152c46.8203 -6.16992 88.9795 -50.1973 94.2285 -97.2939c0 0 2.0918 -3.8291 2.0918 -27.001v-27.6182c-4.85254 -47.1543 -49.4707 -90.9648 -96.1787 -98.2725c0 0 -19.5762 -5.30566 -62.7979 -7.09277
c-0.107422 -0.226562 -0.192383 -0.481445 -0.277344 -0.702148c-20.2656 -46.4004 -107.158 -78.7871 -107.158 -78.7871s36.0967 37.8057 18.54 81.6113z" />
    <glyph glyph-name="uniF124" unicode="&#xf124;" 
d="M272.555 62.3486c-8.3584 -0.873047 -16.6738 -1.36914 -24.8887 -1.36914c-9.08203 0 -17.9365 0.583984 -26.6436 1.61035c-35.1445 -35.7637 -71.8457 -45.4395 -92.3438 -45.4395c-13.1641 0 -19.7188 3.94922 -14.9297 7.49121
c29.9756 22.3018 36.3369 43.9717 34.4004 61.0205c-38.5215 21.5957 -65.1484 55.7471 -69.9434 96.4883c-9.16406 76.9443 63.0254 148.074 161.232 158.887c8.46387 0.916016 16.8613 1.40039 25.1426 1.40039c87.4775 0 160.835 -50.8691 169.21 -121.138
c9.16602 -76.9766 -63.0225 -148.185 -161.236 -158.951z" />
    <glyph glyph-name="uniF123" unicode="&#xf123;" 
d="M198.431 79.4951h-63.9775c-29.7471 0 -53.9189 24.1562 -53.9189 53.957v142.534c0 29.832 24.1396 53.9561 53.9189 53.9561h242.792c29.7568 0 53.918 -24.1553 53.918 -53.9561v-142.533c0 -29.8281 -24.1396 -53.957 -53.918 -53.957h-98.0049
c-0.0957031 -0.267578 -0.213867 -0.539062 -0.321289 -0.807617c-18.5752 -44.8994 -98.1973 -76.251 -98.1973 -76.251s32.0791 35.4814 17.709 77.0576z" />
    <glyph glyph-name="uniF10A" unicode="&#xf10a;" 
d="M265.203 12.8936h-134.062c-27.7119 0 -50.1885 22.4707 -50.1885 50.1826v257.848c0 27.707 22.4648 50.1826 50.1885 50.1826h257.837c27.7119 0 50.1875 -22.4707 50.1875 -50.1826v-257.848c0 -27.707 -22.4648 -50.1826 -50.1875 -50.1826h-67.7432v134.227h37.8115
l4.89844 48.6943h-42.6943v28.625c0 10.7461 6.95703 13.2666 11.8662 13.2666h30.1279v47.2637l-41.4961 0.163086c-46.0654 0 -56.5449 -35.2432 -56.5449 -57.7949v-31.5225h-26.6367v-48.6943h26.6367v-134.228z" />
    <glyph glyph-name="uniF103" unicode="&#xf103;" 
d="M219.715 192.998l-108.093 108.295c-10.0908 10.1162 -10.0684 26.2607 -0.101562 36.2217c10.0361 10.0146 26.1543 9.89062 36.1699 -0.125l108.144 -108.366l108.997 108.717c10.0879 10.0928 26.2568 10.0635 36.2217 0.121094
c10.0381 -10.0381 9.88672 -26.1768 -0.151367 -36.1914l-108.99 -108.74l109.417 -109.641c10.0596 -10.0957 10.0596 -26.2373 0.0957031 -36.1992c-10.0381 -10.0391 -26.1553 -9.91602 -36.1709 0.121094l-109.463 109.667l-109.295 -109.014
c-10.1104 -10.0947 -26.2783 -10.0635 -36.2441 -0.12207c-10.0146 10.0371 -9.86816 26.1836 0.146484 36.1914z" />
    <glyph glyph-name="uniF100" unicode="&#xf100;" 
d="M24.5762 64.2158l142.79 255.568h313.584l-147.332 -255.568h-309.042z" />
    <glyph glyph-name="uniF11C" unicode="&#xf11c;" 
d="M232.508 249.272c48.3281 38.748 108.521 40.9473 108.521 40.9473l0.135742 57.6533l109.809 -92.9365l-109.944 -102.166v59.0938s-41.6797 0.318359 -80.3096 -13.6133c-38.6377 -13.9668 -99.8105 -64.208 -99.8105 -64.208s23.2412 76.4473 71.5986 115.229z
M77.833 48.6611l0.108398 249.939l168.715 0.0410156s-12.2139 -3.48535 -31.3496 -19.4502c-19.1543 -15.9365 -31.2637 -37.0254 -31.2637 -37.0254h-49.7695l0.188477 -144.506l242.698 0.141602v41.7373l52.832 48.7666v-82.668v-57.3057z" />
    <glyph glyph-name="uniF110" unicode="&#xf110;" 
d="M358.094 362.523c37.4414 0 67.915 -30.4629 67.915 -67.9199v-71.7432v-143.896c0 -37.4619 -30.4746 -67.9248 -67.915 -67.9248h-215.646c-37.4453 0 -67.9131 30.4805 -67.9131 67.9248v143.896v71.7432c0 37.457 30.4678 67.9199 67.9131 67.9199h215.646z
M326.768 321.162l-0.0605469 -57.9336l58.0693 0.191406l0.0634766 57.7422h-58.0723zM200.125 222.86c-7.34668 -10.168 -11.7129 -22.6113 -11.7129 -36.0742c0 -34.1084 27.7334 -61.8545 61.8594 -61.8545c34.084 0 61.8662 27.7451 61.8662 61.8545
c0 13.4629 -4.3877 25.9062 -11.708 36.0742c-11.2471 15.5703 -29.5205 25.791 -50.1582 25.791s-38.9043 -10.2207 -50.1465 -25.791zM393.126 79.1787l0.0830078 142.845l-53.8359 -0.213867c4.52637 -11.1465 7.00391 -22.2744 7.00391 -35.0225
c0 -52.9893 -43.0996 -96.1035 -96.1045 -96.1035c-52.999 0 -96.1084 43.1143 -96.1084 96.1035c0 12.748 2.6377 23.876 7.17578 35.0225l-53.5684 -0.145508l-0.0917969 -142.84c0 -18.5898 16.2881 -34.625 34.8662 -34.625h215.646
c18.583 0 34.9346 16.3955 34.9346 34.9795z" />
    <glyph glyph-name="uniF121" unicode="&#xf121;" 
d="M35.9834 111.239c-0.975586 0 -1.75684 0.776367 -1.87207 1.85156l-3.43457 26.0908l3.43457 26.5508c0.115234 1.10449 0.896484 1.89355 1.87207 1.89355c0.961914 0 1.73633 -0.774414 1.88574 -1.87988l4.06055 -26.5498l-4.06055 -26.1055
c-0.171875 -1.0752 -0.9375 -1.85156 -1.88574 -1.85156zM282.624 84.2744c-3.45605 0.371094 -6.18945 3.38379 -6.23242 6.92773v186.642c0.0429688 3.42773 1.20605 5.17676 5.55859 6.89844c11.2314 4.43262 23.9336 7.04395 36.9844 7.04395
c53.3037 0 96.9873 -41.5547 101.604 -94.5557c6.85645 2.91309 14.415 4.56055 22.3408 4.56055c31.9365 0 57.8125 -26.3193 57.8125 -58.7939s-25.876 -58.7949 -57.8125 -58.7949c-1.02637 0 -160.113 0.0722656 -160.256 0.0722656zM264.574 278.043
c3.44727 0 6.30273 -2.89844 6.36719 -6.46875l2.83887 -132.465l-2.83887 -48.0801v0.0429688c-0.0361328 -3.54102 -2.91992 -6.43945 -6.36719 -6.43945c-3.47266 0 -6.33496 2.92383 -6.37793 6.39648l-2.61035 48.0801l2.61035 132.465
c0.0429688 3.54395 2.90527 6.46875 6.37793 6.46875zM244.821 84.3174c-3.24121 0 -5.90234 2.70996 -5.95898 6.03809c0 0 -2.24512 48.7256 -2.24512 48.8115l2.24512 121.406c0.0566406 3.34082 2.71777 6.02539 5.95898 6.02539
c3.22754 0 5.92285 -2.68457 5.9668 -6.02539l2.50977 -121.464l-2.50977 -48.7832v0.0429688c-0.0439453 -3.3418 -2.73926 -6.05176 -5.9668 -6.05176zM233.347 139.139l-2.7832 -49.1416v0.0429688c-0.0556641 -3.15527 -2.50195 -5.63672 -5.5498 -5.63672
c-3.04004 0 -5.4873 2.48145 -5.55078 5.59375l-2.48926 49.1123l2.4668 102.085c0.0556641 3.1543 2.53223 5.63867 5.57227 5.63867c3.04785 0 5.49414 -2.48438 5.5498 -5.625zM205.304 84.5039c-2.81836 0 -5.08398 2.32422 -5.15039 5.2207l-2.71094 49.4424
l2.71094 105.929c0.0439453 2.89746 2.31836 5.19141 5.15039 5.19141c2.82031 0 5.08594 -2.28027 5.17188 -5.19141l3.04102 -105.929l-3.04102 -49.4424v0.0283203c-0.0654297 -2.9248 -2.35254 -5.24902 -5.17188 -5.24902zM185.805 84.46
c-2.59668 0 -4.69922 2.12305 -4.76172 4.79199l-2.95605 49.915l2.95605 108.696c0.0859375 2.69531 2.16504 4.80469 4.76172 4.80469s4.67578 -2.1084 4.75488 -4.80469l3.34961 -108.696l-3.34961 -49.915v0.0263672
c-0.0791016 -2.69629 -2.18164 -4.81836 -4.75488 -4.81836zM166.418 248.71c2.35156 0 4.27441 -1.9209 4.35352 -4.40332l3.61523 -105.14l-3.61523 -50.2324v0.0283203c-0.078125 -2.45215 -2.00098 -4.38965 -4.35352 -4.38965
c-2.36621 0 -4.28027 1.92285 -4.3584 4.36133l-3.21289 50.2324l3.21289 105.14c0.0771484 2.48242 1.99219 4.40332 4.3584 4.40332zM147.204 84.46c-2.12207 0 -3.87109 1.75 -3.96582 3.95898l-3.42773 50.748l3.42773 97.0508
c0.107422 2.2373 1.84375 3.98633 3.96582 3.98633c2.12402 0 3.86035 -1.74902 3.9668 -3.98633l3.87207 -97.0508l-3.87207 -50.7617v0.0429688c-0.107422 -2.23828 -1.84277 -3.98828 -3.9668 -3.98828zM135.846 139.182l-4.16016 -51.0508v0.0146484
c-0.12207 -2.00781 -1.6709 -3.57227 -3.55762 -3.57227c-1.89258 0 -3.4502 1.56543 -3.5498 3.55859l-3.67969 51.0498l3.67969 79.0049c0.0996094 1.99414 1.65723 3.58594 3.5498 3.58594c1.88672 0 3.43555 -1.57617 3.55762 -3.58594zM109.222 84.9766
c-1.71973 0 -3.06055 1.34863 -3.16992 3.15527l-3.91504 51.0498l3.91504 48.5537c0.109375 1.80664 1.47852 3.18457 3.16992 3.18457c1.66992 0 3.04102 -1.34766 3.14062 -3.15527l4.45605 -48.583l-4.45605 -51.0498
c-0.121094 -1.80762 -1.4707 -3.15527 -3.14062 -3.15527zM90.4531 85.8096c-1.45508 0 -2.65332 1.18945 -2.75391 2.75195l-4.15039 50.6201l4.15039 52.3389c0.100586 1.59375 1.29883 2.76953 2.75391 2.76953c1.42773 0 2.58887 -1.17578 2.73438 -2.76953
l4.7168 -52.3389l-4.7168 -50.6201c-0.145508 -1.5625 -1.30664 -2.75195 -2.73438 -2.75195zM74.1748 190.159l4.98242 -50.9629l-4.98242 -49.0986c-0.144531 -1.34863 -1.12695 -2.30957 -2.3457 -2.30957c-1.22656 0 -2.23047 0.990234 -2.35254 2.33789
l-4.38867 49.0986s4.38867 50.9189 4.38867 50.9346c0.12207 1.36133 1.10449 2.35254 2.35254 2.35254c1.20508 0 2.20117 -0.991211 2.3457 -2.35254zM51.4023 97.2256l-4.61719 41.9697s4.61719 42.9316 4.61719 42.9443
c0.143555 1.11816 0.960938 1.9375 1.96582 1.9375c1.00293 0 1.79199 -0.789062 1.95996 -1.9375l5.24023 -42.9443l-5.24023 -41.9854c-0.166992 -1.14648 -0.956055 -1.93457 -1.95996 -1.93457c-1.00488 0.000976562 -1.82227 0.816406 -1.96582 1.9502z" />
    <glyph glyph-name="uniF120" unicode="&#xf120;" 
d="M426.154 185.182c14.4619 -19.1074 23.7881 -43.1836 23.7891 -69.3145c0 -62.2061 -51.7676 -112.641 -112.301 -112.641c-34.9316 -0.43457 -54.2969 14.8105 -54.2969 14.8105l-1.60742 0.888672s-19.0312 -2.19727 -27.3467 -2.19727
c-94.2617 0 -170.681 78.5918 -170.681 175.545c0 2.49805 1.0332 5.4248 1.0332 5.4248c-14.5117 19.0977 -28.0918 43.1377 -28.0918 69.3027c0 62.208 53.9795 113.781 114.49 113.781c19.7373 0 38.2988 -6.50391 54.3154 -15.9385l1.02637 0.635742
c9.08691 1.54883 18.4111 2.36523 27.9297 2.36523c94.2598 0 170.697 -78.6016 170.697 -175.57c0 -1.53516 -0.0205078 -3.04883 -0.0605469 -4.6084zM329.668 90.6758c19.7734 13.8984 29.6816 30.5215 29.6807 49.8008c0 24.6523 -9.24707 42.5352 -27.8164 53.8047
c-18.5381 11.2236 -39.1748 17.9199 -61.9131 20.0801c-21.5381 3.20508 -38.3174 9.28906 -44.2939 15.7344c-5.99512 6.39746 -7.23145 20.502 -1.2373 29.5869c5.99609 9.14355 20.6982 16.2168 46.3359 13.251c19.4971 -4.21387 32.1367 -14.0205 46.5801 -24.7383
c0 0 14.6494 -6.26465 24.4004 6.21777c11.6172 16.3594 -0.276367 28.8184 -0.276367 28.8184s-10.1895 14.0898 -23.957 19.4785c-13.7666 5.33984 -33.1504 12.2295 -58.1514 12.2295c-21.5615 0 -43.3398 -8.1377 -63.7373 -20.9785
c-20.4346 -12.916 -33.9004 -32.5498 -33.9004 -53.8555c0 -23.5713 13.0771 -40.1348 31.0322 -49.7852c17.9258 -9.67578 37.6699 -15.5674 59.2246 -17.6807c23.9502 -2.19531 39.2715 -10.7295 45.2129 -19.8623c5.91797 -9.08594 5.91797 -18.1729 0 -27.3184
c-5.94043 -9.08594 -20.043 -14.6182 -43.9766 -14.6182c-28.7334 2.125 -50.2891 13.5625 -62.2549 26.4062c0 0 -12.5664 13.8613 -28.1875 -0.27832c-18.6338 -15.7695 -4.00977 -30.125 -4.00977 -30.125c11.9727 -10.7305 22.625 -20.9805 39.3926 -27.4014
c16.7373 -6.41016 37.6387 -9.66211 62.6475 -9.66211c26.3135 0 49.3633 6.99707 69.2051 20.8955z" />
    <glyph glyph-name="uniF102" unicode="&#xf102;" 
d="M218.425 194.662l-125.037 124.743l32.9629 32.9697l125.01 -124.708l124.119 124.368l32.9609 -32.9717l-124.082 -124.331l127.779 -127.478l-32.9619 -32.9502l-127.745 127.438l-124.394 -124.637l-32.9609 32.9561z" />
    <glyph glyph-name="uniF107" unicode="&#xf107;" 
d="M397.94 168.468c-26.7969 6.37793 -56.7725 9.56738 -87.165 5.97754c13.1924 -36.2734 21.2002 -70.584 26.7861 -100.885c31.583 21.9424 53.9863 55.4443 60.3789 94.9072zM289.196 226.295c3.99512 -9.1709 7.99121 -17.9453 11.5957 -26.708
c31.1943 4.78711 64.375 3.19043 99.1465 -4.80078c-0.806641 32.7021 -12.3877 62.6123 -31.1777 86.5332c-20.793 -23.5342 -47.1895 -41.8848 -79.5645 -55.0244zM222.825 331.572c22.001 -27.1094 39.585 -55.0391 54.375 -82.1475
c30.3711 12.3701 54.3701 29.1064 73.165 51.0283c-25.1885 21.9365 -58.3691 35.0977 -94.3486 35.0977c-11.6123 -0.015625 -22.4189 -1.20703 -33.1914 -3.97852zM309.974 58.8066c-5.19141 32.3105 -13.9834 69.3916 -28.3838 109.255
c-40.7754 -11.5596 -80.3438 -38.6719 -113.135 -90.1162c23.9785 -18.3496 54.3701 -29.4971 87.5615 -29.4971c19.1689 0 37.5752 3.5957 53.957 10.3584zM115.271 222.7c53.1836 1.20703 97.1631 6.7832 133.533 17.1553
c-14.7998 26.7041 -33.1963 54.2178 -55.5664 81.3428c-39.1885 -18.75 -68.3682 -55.0391 -77.9668 -98.498zM263.189 190.005c2.79785 1.20801 5.60254 1.99805 8.38477 2.7832c-3.19824 7.58496 -6.79492 15.5615 -10.3887 23.1338
c-40.7754 -11.9541 -89.5645 -18.7363 -149.121 -19.5381v-4.37988c0.0175781 -36.6904 13.9951 -70.1826 36.7861 -95.6934c30.3896 46.2578 68.7705 77.7451 114.339 93.6943zM256.005 19.748c-95.5566 0 -172.723 76.9463 -172.723 172.255
c0 95.3076 77.165 172.249 172.723 172.249c95.5518 0 172.713 -76.9414 172.713 -172.249c0 -95.3086 -77.1611 -172.255 -172.713 -172.255z" />
    <glyph glyph-name="uniF10C" unicode="&#xf10c;" 
d="M383.746 87.5654c-56.1104 0 -101.922 45.9902 -101.922 102.288c0 56.2988 45.8115 102.288 101.922 102.288c56.1074 0 101.92 -45.9893 101.92 -102.288c0 -56.2979 -45.8125 -102.288 -101.92 -102.288zM142.856 87.5654
c-56.1143 0 -101.928 45.9902 -101.928 102.288c0 56.2988 45.8135 102.288 101.928 102.288c56.082 0 101.915 -45.9893 101.915 -102.288c0 -56.2979 -45.8135 -102.288 -101.915 -102.288z" />
    <glyph glyph-name="uniF113" unicode="&#xf113;" 
d="M188.35 73.0566v160.538h-53.1689v-160.538h53.1689zM161.792 255.476c18.5146 0 30.0576 12.3096 30.0352 27.7266c-0.349609 15.7354 -11.5205 27.7422 -29.708 27.7422c-18.1826 0 -30.0898 -12.0244 -30.0898 -27.7422c0 -15.417 11.5908 -27.7266 29.3701 -27.7266
h0.392578zM326.804 158.932h-0.0224609v-85.8613h53.1514v92.0127c0 49.3037 -26.2227 72.252 -61.1875 72.252c-28.2588 0 -40.875 -15.625 -47.8906 -26.6035v-0.448242h-0.316406c0.0908203 0.141602 0.209961 0.324219 0.316406 0.448242v22.8408h-53.1201
c0.671875 -15.0645 0 -160.501 0 -160.501h53.1201v89.6279c0 4.7793 0.317383 9.54199 1.79297 13.0195c3.81738 9.57715 12.5732 19.4863 27.2656 19.4863c19.2021 0 26.8906 -14.7021 26.8906 -36.2734zM431.909 39.7334c0 -14.0498 -11.6592 -25.4355 -25.9932 -25.4355
h-299.811c-14.4072 0 -26.0146 11.4023 -26.0146 25.4355v304.494c0 14.0762 11.6064 25.4746 26.0146 25.4746h299.81c14.334 0 25.9932 -11.3984 25.9932 -25.4746v-304.494h0.000976562z" />
    <glyph glyph-name="uniF11A" unicode="&#xf11a;" 
d="M368.604 209.472l0.227539 -0.227539l-181.54 -181.536l-36.7471 36.7471l145.145 145.146l-144.065 144.076l36.7637 36.751l180.583 -180.572z" />
    <glyph glyph-name="uniF11F" unicode="&#xf11f;" 
d="M365.192 136.142l41.1953 38.5137s-0.0419922 -71.4424 -0.0419922 -72.3438c0 -44.1641 -10.8184 -54.1826 -53.1494 -54.2471c-49.1045 -0.106445 -186.341 0 -216.356 0c-42.0771 0 -52.3896 7.75 -52.3896 51.9062c0 44.1816 -0.0214844 129.242 0 152.454
c0.0205078 52.834 28.1191 53.6523 54.2842 53.6523l131.217 -0.606445c-2.35742 -0.991211 -34.0352 -14.5859 -52.0547 -23.9746c-13.4473 -7.01074 -13.1523 -6.39941 -30.4131 -18.25h-39.0234c-13.3447 0 -21.7227 -9.24219 -21.7227 -22.8359
c0 -33.3018 0.188477 -113.078 0.188477 -129.199c0 -12.4189 9.32617 -21.2578 21.9346 -21.2578h193.542c24.5352 0 22.5361 32.4639 22.79 46.1885zM321.478 329.213l120.671 -92.0029l-120.984 -88.5518v60.3057c-29.1104 0 -45.3604 -1.17773 -58.7041 -2.71582
c-81.5439 -9.56055 -102.844 -63.3398 -102.844 -63.3398c0 122.572 151.444 132.124 161.146 132.124z" />
    <glyph glyph-name="uniF11E" unicode="&#xf11e;" 
d="M222.542 254.939c55.4434 42.9189 110.449 43.8418 110.449 43.8418l0.0244141 63.7393l144.343 -106.313l-144.366 -109.589v65.4268s-33.1338 8.42578 -77.4385 -7.02148c-44.2988 -15.4414 -93.8398 -72.8428 -93.8398 -72.8428s5.40918 79.8633 60.8281 122.759z
M79.6777 47.5283v251.34h150.286s-11.7363 -1.12793 -33.4678 -19.0352c-21.7236 -17.9033 -26.5801 -27.3076 -26.5801 -27.3076l-43.2881 0.00585938v-157.37l262.398 0.0136719l0.0126953 26.1123l47.0127 40.5068v-114.266h-356.374z" />
    <glyph glyph-name="uniF10F" unicode="&#xf10f;" 
d="M184.768 133.285c8.78027 5.18359 17.2236 13.0518 25.5605 23.0693c5.88477 6.98145 11.5801 14.9453 17.3564 23.4189c-4.99023 7.33887 -9.92969 14.2891 -15.0068 20.5596c-11.0986 13.8838 -22.2578 23.9883 -34.2812 29.2773
c-6.93262 3.05371 -14.2764 4.77832 -23.2754 4.80273c-13.3467 0.0302734 -26.8047 -6.00781 -36.7715 -16.1445c-9.97949 -10.167 -16.1064 -23.7441 -16.0938 -38.4824c0.0986328 -30.3652 23.0879 -54.5342 52.8652 -54.6152
c11.7842 0.0507812 20.8145 2.93066 29.6465 8.11426zM333.41 129.851c6.68164 -2.98535 13.6582 -4.64746 22.252 -4.67773c12.7959 -0.0751953 26.8105 5.9707 37.2207 16.2373c10.4619 10.2861 16.8867 23.9072 16.8633 38.3779
c-0.00683594 15 -6.10742 28.541 -16.0693 38.5693c-9.98633 10.0117 -23.5 16.0635 -38.0137 16.0576c-11.2363 -0.0625 -19.7979 -2.81738 -28.4102 -7.91895c-8.53125 -5.12695 -16.9307 -13.002 -25.293 -23.0566
c-5.93945 -7.05176 -11.7227 -15.1016 -17.6426 -23.6699c5.10156 -7.38867 10.1113 -14.3896 15.2197 -20.6973c11.1709 -13.959 22.2812 -24.0566 33.873 -29.2217zM86.4229 109.74c-17.793 17.9111 -28.6914 42.8555 -28.6719 70.0469
c0.00585938 27.7148 11.8652 52.5723 29.8203 70.2334c17.9609 17.6934 42.3867 28.8535 68.8721 28.8975c19.7607 0.0507812 37.6279 -5.3457 52.5293 -14.0205c14.958 -8.64258 27.0615 -20.1846 37.5977 -32.4443c3.75879 -4.41504 7.34961 -8.94238 10.8037 -13.5205
c2.4541 3.29785 4.97754 6.57617 7.55762 9.80469c13.3076 16.4189 29.0391 32.0879 50.2178 41.6367c12.041 5.4209 25.7236 8.56152 40.4072 8.54395c53.8457 -0.155273 98.499 -44.0664 98.6924 -99.1309c-0.0244141 -27.9727 -12.3779 -52.7725 -30.3887 -70.3223
c-18.0801 -17.5498 -42.2617 -28.7217 -68.3037 -28.7959c-19.5176 0 -36.8906 5.50781 -51.2676 14.1943c-14.5322 8.72559 -26.2305 20.2471 -36.4912 32.4629c-3.61621 4.3457 -7.0752 8.79297 -10.4297 13.2832c-2.53613 -3.34766 -5.14062 -6.67676 -7.81348 -9.94824
c-13.6514 -16.5059 -29.9717 -32.1562 -51.7168 -41.5869c-12.3525 -5.3584 -26.3545 -8.4248 -41.3945 -8.40527c-27.3711 -0.0185547 -52.2773 11.1104 -70.0205 29.0713z" />
    <glyph glyph-name="uniF125" unicode="&#xf125;" 
d="M229.142 165.889c-33.3779 1.07031 -56.9365 -5.78809 -57.4668 -5.93848c-4.1582 -1.20117 -6.52344 -5.55273 -5.29004 -9.67285c1.22266 -4.13867 5.54688 -6.50781 9.69922 -5.30664c0.0214844 0 1.15527 0.360352 3.63965 0.926758
c7.44043 1.7002 25.6865 5.14844 48.9355 4.39941c5.14844 -0.173828 10.5605 -0.571289 16.1758 -1.20508c18.2842 -2.1084 34.6318 -7.62891 46.3203 -12.5908c5.84082 -2.45312 10.543 -4.8291 13.7207 -6.52637c3.17676 -1.70508 4.73438 -2.70117 4.73438 -2.70117
c1.22266 -0.749023 2.55957 -1.14844 3.90137 -1.18555c2.69531 -0.0839844 5.35938 1.20508 6.88477 3.66016c2.28125 3.66016 1.16895 8.48926 -2.49023 10.791c-0.550781 0.271484 -30.752 19.3057 -71.3037 24.0439c-6.04688 0.6875 -11.9023 1.12305 -17.4609 1.30566z
M233.896 214.699c-38.6318 1.27344 -65.8818 -6.66504 -66.5479 -6.86914c-5.18066 -1.5 -8.15234 -6.92676 -6.61133 -12.1279c1.50977 -5.19043 6.95215 -8.14258 12.1221 -6.64844c0.0175781 0 1.30664 0.37793 4.1582 1.04883
c8.53125 1.9707 29.5469 5.94043 56.2812 5.0498c5.94141 -0.189453 12.1543 -0.635742 18.5938 -1.37598c21.0146 -2.4209 39.8164 -8.72363 53.2607 -14.4434c6.72656 -2.85742 12.1016 -5.55176 15.7773 -7.5293c1.81836 -0.959961 3.22852 -1.74609 4.15137 -2.30176
c0.913086 -0.529297 1.27539 -0.754883 1.27539 -0.754883c1.52539 -0.94043 3.19238 -1.41992 4.85449 -1.47949c3.36621 -0.114258 6.70117 1.5166 8.60449 4.57324c2.86816 4.56641 1.47852 10.6016 -3.09375 13.4707
c-0.698242 0.376953 -35.623 22.3975 -82.6182 27.8926c-7.00391 0.807617 -13.7686 1.29004 -20.208 1.49512zM349.815 217.938c1.80371 -1.15234 3.81152 -1.73535 5.81934 -1.78613c4.03809 -0.136719 8.03906 1.81836 10.335 5.49414
c3.45508 5.46191 1.77246 12.7305 -3.70703 16.1494c-0.838867 0.460938 -42.0508 26.4365 -97.5254 32.9268c-8.27344 0.964844 -16.2373 1.53125 -23.8457 1.77148c-45.6006 1.49414 -77.7725 -7.88574 -78.5703 -8.08789
c-6.21387 -1.8252 -9.76758 -8.34766 -7.94336 -14.5518c1.82031 -6.21875 8.32715 -9.79297 14.5391 -7.97461c0 0 0.293945 0.0888672 1.11719 0.31543c5.78809 1.50977 33.3633 8.07324 70.1035 6.85156c6.98828 -0.225586 14.335 -0.759766 21.9268 -1.61426
c24.7373 -2.85254 46.9053 -10.2871 62.751 -17.0244c7.93359 -3.36621 14.2871 -6.56055 18.5986 -8.8457c2.16016 -1.14844 3.81055 -2.09766 4.8916 -2.71484c1.09668 -0.651367 1.50977 -0.90918 1.50977 -0.90918zM84.2803 197.663
c3.08887 94.8311 82.4609 169.18 177.291 166.056c94.8252 -3.14648 169.222 -82.5547 166.149 -177.381c-1.85645 -56.6025 -30.873 -105.902 -74.1562 -135.775c-1.53027 2.08105 -3.09375 4.1582 -4.70215 6.16602c-31.2197 39.1309 -90.9824 53.0244 -126.123 55.1699
c-38.3428 2.33887 -73.4043 -1.02832 -103.334 -24.0088c-23.1914 30.3525 -36.4678 68.6133 -35.125 109.773zM167.827 44.5859c17.2861 12.7617 36.7236 19.6309 57.0674 18.9648c27.166 -0.896484 51.8721 -15.1318 71.3613 -38.5996
c-14.665 -3.50391 -30.0332 -5.18555 -45.8301 -4.67188c-30.2344 0.994141 -58.376 9.77246 -82.5986 24.3066z" />
    <glyph glyph-name="uniF119" unicode="&#xf119;" 
d="M384.027 107.952v23.376l50.0039 59.0938v-113.37c0 -9.86133 -8.12695 -17.8564 -17.9775 -17.8564h-261.915v-54.334l-86.7959 78.8135l86.7959 77.0381v-52.7607h229.889zM130.606 212.256l-46.8115 -48.6465l-0.163086 110.729
c0 14.4199 2.15332 19.5928 19.4238 19.5928l258.392 -0.173828l-0.25 58.9609l83.458 -80.1396l-83.458 -86.8008l0.25 60.0469h-230.841v-33.5693z" />
    <glyph glyph-name="uniF10D" unicode="&#xf10d;" 
d="M466.716 176.038l-175.593 -140.81l-79.0049 66.9805c22.9121 11.2412 42.4346 28.3643 56.5693 49.8672l22.4355 -37.6553l175.593 184.826v-123.209zM150.637 334.44c58.0742 0 105.357 -47.4434 105.357 -105.608c0 -58.1689 -47.2832 -105.608 -105.357 -105.608
c-58.0488 0 -105.352 47.4648 -105.352 105.608c0 58.165 47.3027 105.608 105.352 105.608z" />
    <glyph glyph-name="uniF127" unicode="&#xf127;" 
d="M260.819 268.713c-7.42578 16.4023 -18.5801 24.6201 -33.4697 24.6201v11.9131h104.019v-11.9131h-17.7012c-8.78711 0 -13.1318 -2.47754 -13.1318 -7.3418c0 -2.26562 0.25293 -4.84473 0.779297 -7.62988c0.479492 -2.875 1.16992 -6.04395 1.9502 -9.62891
l64.7129 -173.098l60.5039 165.386c0.78125 4.5918 1.13672 9.0957 1.13672 13.4404c0 12.6055 -11.6602 18.8936 -35.0508 18.8936v11.9131h92.4893v-11.9131h-11.9346c-9.01953 0 -15.8262 -6.83594 -20.4453 -20.4062l-92.4414 -228.464l-13.1523 2.70215z
M160.823 271.565c-12.0986 12.4541 -27.0293 18.7031 -44.7324 18.7031c-14.6562 0 -26.3389 -3.89355 -35.043 -11.5508c-8.7666 -7.69141 -13.1045 -17.4707 -13.1045 -29.2598c0 -9.2041 3.16211 -17.2324 9.4502 -23.9854
c6.27539 -6.82324 15.6914 -12.9189 28.2959 -18.292c15.6846 -6.71191 29.8828 -12.2686 42.7607 -16.75c12.8789 -4.50977 23.8682 -9.66992 32.9902 -15.5684c9.10059 -5.86426 16.1699 -13.3369 21.1172 -22.2666c5.05664 -9.03906 7.57422 -21.1855 7.57422 -36.5752
c0 -9.49805 -1.5127 -18.874 -4.42676 -28.083c-2.96289 -9.27148 -7.5752 -17.5107 -13.7002 -24.834c-6.16504 -7.29492 -14.2119 -13.1855 -24.1133 -17.6748c-9.88086 -4.50977 -21.7461 -6.73242 -35.6113 -6.73242c-8.99902 0 -16.7988 0.649414 -23.3398 1.92969
c-6.52051 1.30078 -12.0576 2.83301 -16.5674 4.61816c-4.50879 1.7793 -8.0127 3.56445 -10.5732 5.36523c-2.62109 1.77832 -4.42773 3.08594 -5.45215 3.86035c-4.88574 -3.60645 -9.74512 -6.77441 -14.6377 -9.62793
c-4.88477 -2.8125 -9.75098 -4.82422 -14.5898 -6.12402c-2.87402 19.2344 -4.9541 36.3223 -6.39746 51.3613c-1.42969 14.9727 -2.12207 28.1455 -2.12207 39.3818h12.707c0 -11.2363 2.30566 -21.5967 6.94629 -30.9707
c4.61133 -9.35547 10.4834 -17.3672 17.7236 -23.9912c7.16504 -6.73242 15.2451 -11.9131 24.2783 -15.6299c8.95703 -3.68848 17.7236 -5.55664 26.1729 -5.55664c5.41309 0 11.4082 0.862305 17.9287 2.68262c6.54883 1.80762 12.7549 4.61914 18.5234 8.43652
c5.7207 3.83984 10.6484 8.74609 14.5957 14.6367c4.00293 5.87109 5.99414 12.9404 5.99414 21.1787c0 10.21 -2.76465 19.2285 -8.30664 26.8857c-5.51465 7.74023 -14.2939 13.7412 -26.3789 18.0986c-14.1172 5.14062 -27.6797 9.88184 -40.6875 14.2207
c-12.9336 4.33887 -24.3877 9.5459 -34.2617 15.5811c-9.88281 6.04297 -17.8066 13.5908 -23.6982 22.7129c-5.93945 9.08008 -8.875 21.0752 -8.875 35.9658c0 10.7568 1.88867 20.5156 5.80957 29.2324c3.85938 8.7041 9.01953 16.1904 15.5811 22.4795
c6.58301 6.31543 14.1787 11.1602 22.9238 14.6631c8.70312 3.46289 17.8252 5.18066 27.3447 5.18066c11.0781 0 20.4668 -1.9707 28.3359 -5.95215c7.82129 -3.9834 15.0957 -7.48633 21.8086 -10.5732c7.93066 6.41992 16.2715 10.9014 25.0381 13.4463
c3.59277 -11.8105 6.12402 -24.334 7.69824 -37.5c1.5332 -13.2139 2.28516 -27.4941 2.28516 -42.8711h-11.4482c-5.17871 20.7422 -13.7793 37.3281 -25.8164 49.748z" />
    <glyph glyph-name="uniF109" unicode="&#xf109;" 
d="M252.768 90.0674v67.8086h-209.134v41.8271h209.134v67.8271l88.7188 -88.7432zM357.25 346.097c34.7402 0 62.8271 -28.168 62.8271 -62.9268v-208.743c0 -34.9854 -28.1504 -62.9453 -62.8271 -62.9453h-167.165c-34.7402 0 -62.7988 28.1807 -62.7988 62.9453v41.6133
h41.8281v-41.7588c0 -11.5732 9.51855 -20.9756 20.8076 -20.9756h167.491c11.5049 0 20.8359 9.53516 20.8359 20.9756v209.029c0 11.5811 -9.54102 20.9512 -20.8359 20.9512h-167.491c-11.4932 0 -20.8076 -9.51074 -20.8076 -20.9512v-41.7812h-41.8281v41.6406
c0 34.9912 28.1045 62.9268 62.7988 62.9268h167.165z" />
    <glyph glyph-name="uniF11B" unicode="&#xf11b;" 
d="M274.314 113.438c54.1553 0 98.0576 43.8896 98.0576 98.0586c0 54.1406 -43.9023 98.0508 -98.0576 98.0508s-98.0439 -43.9102 -98.0439 -98.0508c0 -54.168 43.8887 -98.0586 98.0439 -98.0586zM157.156 128.139c-16.7617 23.5059 -26.6094 52.2705 -26.6094 83.3574
c0 79.3896 64.3623 143.768 143.768 143.768s143.782 -64.3779 143.782 -143.768c0 -79.4189 -64.377 -143.796 -143.782 -143.796c-29.8975 0 -57.6758 9.14453 -80.6797 24.7598c-0.97168 -1.46777 -2.09766 -2.86914 -3.39258 -4.16602l-51.9307 -51.9297
c-10.1943 -10.1943 -26.6025 -10.1523 -36.7549 0.0214844c-10.2305 10.209 -10.167 26.6104 -0.0214844 36.7412l51.9297 51.9307c1.14746 1.16797 2.3877 2.18848 3.69141 3.08105z" />
    <glyph glyph-name="uniF10E" unicode="&#xf10e;" 
d="M280.835 286.679c0 28.5186 -14.7002 44.8135 -33.0957 44.8135c-18.3945 0 -33.0957 -16.2949 -33.0957 -44.8135c0 -28.5303 14.6826 -44.8301 33.0957 -44.8301c18.3955 0.0175781 33.0957 16.2998 33.0957 44.8301zM206.371 66.666
c0 -15.8398 19.3086 -28.5117 49.6533 -28.5117c30.3389 0 49.6357 12.6719 49.6357 28.5117c0 15.8545 -19.2969 28.5264 -49.6357 28.5264c-30.3447 0 -49.6533 -12.6543 -49.6533 -28.5264zM363.567 323.326h-32.6309c5.0625 -11.3105 7.80762 -24.4248 7.80762 -38.9229
c0 -53.8545 -39.0713 -89.6426 -87.3516 -91.4199c-14.2402 -22.1924 -10.5459 -35.3184 10.1055 -48.9082c57.0195 -2.24902 102.053 -34.8457 102.053 -77.4102c0 -45.2832 -48.2637 -77.4121 -107.556 -77.4121c-59.3057 0 -107.562 32.5879 -107.562 77.4121
c0 28.9854 20.2285 52.9678 51.0029 66.0928c-28.9541 28.0967 -18.832 56.124 1.39648 72.4541c-26.668 14.9209 -44.1328 42.9912 -44.1328 79.21c0 55.2334 40.9209 91.9121 91.0225 91.9121c18.3955 0 35.4004 -4.96094 49.6348 -13.5898
c49.1689 3.18652 66.1924 17.6719 66.1924 17.6719v-57.0898h0.0175781z" />
  </font>
</defs>
</svg>
