<?xml version="1.0" standalone="no"?>
<!DOCTYPE svg PUBLIC "-//W3C//DTD SVG 1.1//EN" "http://www.w3.org/Graphics/SVG/1.1/DTD/svg11.dtd" >
<svg xmlns="http://www.w3.org/2000/svg">
<metadata>
This is a custom SVG webfont generated by Font Squirrel.
</metadata>
<defs>
<font id="webfontqd9LEIDZ" horiz-adv-x="507" >
<font-face units-per-em="1000" ascent="757" descent="-243" />
<missing-glyph horiz-adv-x="177" />
<glyph unicode=" "  horiz-adv-x="177" />
<glyph unicode="&#x09;" horiz-adv-x="177" />
<glyph unicode="&#xa0;" horiz-adv-x="177" />
<glyph unicode="!" horiz-adv-x="306" d="M220 57q0 -27 -20 -47t-47 -20t-47 20t-20 47t20 47t47 20t47 -20t20 -47zM210 359l-21 -178q-1 -9 -10 -9h-50q-9 0 -10 9l-23 178v261q0 10 10 10h94q10 0 10 -10v-261z" />
<glyph unicode="&#x22;" horiz-adv-x="316" d="M149 621q0 -5 -4 -33l-19 -149q-2 -9 -10 -9h-49q-9 0 -10 9l-20 150q-4 24 -4 32q0 9 10 9h96q10 0 10 -9zM283 621q0 -5 -4 -33l-19 -149q-2 -9 -10 -9h-49q-9 0 -10 9l-20 150q-4 24 -4 32q0 9 10 9h96q10 0 10 -9z" />
<glyph unicode="#" horiz-adv-x="556" d="M530 452l-3 -15l-20 -74q-3 -10 -13 -10h-65q-9 0 -10 -6l-12 -43q-4 -14 -4 -18q0 -9 10 -9h65q8 0 8 -6q0 -3 -3 -15l-20 -74q-3 -10 -13 -10h-72q-9 0 -10 -6l-46 -159q-1 -7 -10 -7h-59q-10 0 -10 9q0 4 2 10.5t2 7.5l33 122l3 15q0 8 -10 8h-78q-9 0 -10 -6 l-45 -159q-1 -7 -10 -7h-60q-10 0 -10 9q0 6 4 18l35 122q3 12 3 15q0 8 -10 8h-57q-7 0 -7 6q0 2 2 9.5t2 8.5l19 71q3 10 12 10h64q8 0 10 8l13 45q0 2 2 7.5t2 7.5q0 8 -11 8h-64q-7 0 -7 6q0 4 4 18l19 71q3 10 12 10h73q8 0 10 8l44 157q1 7 10 7h60q11 0 11 -9 q0 -3 -4 -15l-34 -121q-4 -14 -4 -18q0 -9 10 -9h77q8 0 10 8l46 157q1 7 10 7h60q11 0 11 -9q0 -3 -4 -15l-34 -121q-4 -14 -4 -18q0 -9 10 -9h57q8 0 8 -6zM336 345q0 8 -11 8h-77q-9 0 -10 -6l-12 -43q-5 -15 -5 -18q0 -9 11 -9h77q8 0 10 8l13 45q4 10 4 15z" />
<glyph unicode="$" d="M468 167q0 -74 -44 -121.5t-118 -54.5q-8 -1 -8 -10v-28q0 -10 -10 -10h-52q-10 0 -10 10v27q0 10 -10 10q-94 4 -141 69q-26 36 -26 50q0 5 6 8l76 38q12 6 15 6q5 0 8 -6q13 -33 32 -47q16 -12 30 -12q10 0 10 10v157q0 6 -6 9l-49 24q-15 7 -44.5 26t-43.5 36t-26 45 t-12 60q0 75 46 124t125 53q10 0 10 10v27q0 10 10 10h52q10 0 10 -10v-29q0 -9 8 -10q82 -8 128 -72q24 -34 24 -44q0 -5 -6 -8l-71 -35q-16 -9 -21 -9t-8 6q-12 26 -25 39t-21 13t-8 -11v-141q0 -6 5 -8q36 -17 59 -31t50.5 -38t41.5 -57t14 -75zM226 413v110q0 11 -9 11 q-10 0 -29 -13q-29 -21 -29 -58q0 -25 27 -44q24 -17 32 -17t8 11zM354 167q0 28 -25 50q-15 13 -23 13t-8 -11v-108q0 -11 8 -11t25 15q23 21 23 52z" />
<glyph unicode="%" horiz-adv-x="547" d="M247 439q0 -42 -27.5 -68.5t-73.5 -26.5q-45 0 -72.5 26.5t-27.5 68.5v93q0 43 27.5 70.5t72.5 27.5q46 0 73.5 -26.5t27.5 -68.5v-96zM166 439v96q0 7 -6 13t-14 6q-19 0 -19 -19v-96q0 -19 19 -19q8 0 14 6t6 13zM441 622q0 -2 -13 -34l-249 -582q-3 -6 -9 -6h-53 q-10 0 -10 8q0 5 13 34l249 582q3 6 9 6h53q10 0 10 -8zM501 95q0 -42 -27.5 -68.5t-72.5 -26.5t-72.5 26.5t-27.5 68.5v96q0 42 27.5 68.5t72.5 26.5t72.5 -26.5t27.5 -68.5v-96zM420 95v96q0 19 -19 19t-19 -19v-96q0 -19 19 -19t19 19z" />
<glyph unicode="&#x26;" horiz-adv-x="612" d="M597 0q0 -10 -10 -10q-88 0 -154 54q-9 9 -14 9q-2 0 -10 -8q-50 -55 -141 -55h-29q-86 0 -136 50t-50 135v24q0 61 50 109q9 9 9 12t-9 12q-50 50 -50 119q0 86 50 137.5t136 51.5q85 0 135.5 -50.5t50.5 -136.5v-19q0 -40 -20.5 -73.5t-54.5 -49.5q-6 -3 -6 -8 q0 -3 7 -8q10 -8 23 -22q4 -4 8 -4q6 0 9 7q20 45 63 70.5t102 25.5h31q10 0 10 -10v-94q0 -10 -10 -10h-39q-48 0 -72 -69l-4 -12q-3 -7 3 -13q55 -51 113 -58q9 -2 9 -10v-96zM311 444v19q0 29 -21.5 50.5t-50.5 21.5q-30 0 -51 -21t-21 -51q0 -26 15.5 -45t45.5 -40 q14 -8 16 -8q4 0 17 5q23 9 36.5 27.5t13.5 41.5zM337 140q0 4 -10 16q-31 38 -65 65q-2 2 -43 29q-11 7 -14 7q-6 0 -14 -8q-24 -22 -24 -53v-29q0 -32 21 -52t51 -20h29q36 0 59 29q10 12 10 16z" />
<glyph unicode="'" horiz-adv-x="182" d="M149 621q0 -5 -4 -33l-19 -149q-2 -9 -10 -9h-49q-9 0 -10 9l-20 150q-4 24 -4 32q0 9 10 9h96q10 0 10 -9z" />
<glyph unicode="(" horiz-adv-x="394" d="M312 -162q0 -10 -10 -10q-36 0 -77 15q-113 41 -113 171v525q0 125 105 168q44 18 85 18q10 0 10 -10v-86q0 -10 -9 -10q-37 -3 -57 -22.5t-20 -47.5v-544q0 -29 20 -48.5t57 -22.5q9 0 9 -10v-86z" />
<glyph unicode=")" horiz-adv-x="394" d="M282 14q0 -130 -113 -171q-41 -15 -77 -15q-10 0 -10 10v86q0 10 9 10q37 3 57 22.5t20 48.5v544q0 28 -20 47.5t-57 22.5q-9 0 -9 10v86q0 10 10 10q41 0 85 -18q105 -43 105 -168v-525z" />
<glyph unicode="*" horiz-adv-x="390" d="M374 463q0 -2 -2 -6l-40 -68q-3 -6 -8 -6q-4 0 -7 3l-68 49q-5 3 -9 3q-7 0 -7 -8t2 -18l7 -49q0 -3 1 -8.5t1.5 -9t0.5 -5.5q0 -9 -10 -9h-79q-10 0 -10 9q0 4 3 25l6 46q2 10 2 17q0 10 -7 10q-3 0 -9 -4l-64 -50q-5 -3 -7 -3q-5 0 -8 6l-40 70q-2 4 -2 6q0 5 7 8 l77 31q7 3 7 9t-7 9l-76 33q-7 3 -7 8q0 2 2 6l40 69q3 6 8 6q3 0 7 -3l63 -52q5 -3 8 -3q8 0 8 11q0 2 -1.5 10.5t-1.5 13.5l-6 43q-2 10 -2 17q0 9 10 9h79q10 0 10 -9q0 -7 -2 -17l-6 -44q0 -3 -1 -8.5t-1.5 -9.5t-0.5 -6q0 -11 8 -11q4 0 8 3l67 53q5 3 7 3q5 0 8 -6 l39 -68q2 -4 2 -6q0 -5 -7 -8l-79 -34q-7 -3 -7 -9t7 -9l80 -31q7 -3 7 -8z" />
<glyph unicode="+" d="M468 210q0 -10 -10 -10h-152q-10 0 -10 -10v-151q0 -10 -10 -10h-66q-10 0 -10 10v151q0 10 -10 10h-151q-10 0 -10 10v66q0 10 10 10h151q10 0 10 10v152q0 10 10 10h66q10 0 10 -10v-152q0 -10 10 -10h152q10 0 10 -10v-66z" />
<glyph unicode="," horiz-adv-x="230" d="M182 49q0 -105 -70 -155q-31 -23 -41 -23q-5 0 -8 6l-23 45q-6 12 -6 14q0 5 6 8q19 10 29 28.5t10 33.5q0 9 -10 9h-11q-10 0 -10 10v97q0 10 10 10h114q10 0 10 -10v-73z" />
<glyph unicode="-" horiz-adv-x="278" d="M239 182q0 -10 -10 -10h-180q-10 0 -10 10v94q0 10 10 10h180q10 0 10 -10v-94z" />
<glyph unicode="." horiz-adv-x="230" d="M182 57q0 -27 -20 -47t-47 -20t-47 20t-20 47t20 47t47 20t47 -20t20 -47z" />
<glyph unicode="/" horiz-adv-x="330" d="M337 622q0 -6 -5 -16l-257 -600q-3 -6 -9 -6h-63q-10 0 -10 8q0 2 6 18l256 598q3 6 9 6h63q10 0 10 -8z" />
<glyph unicode="0" d="M454 167q0 -79 -51 -128t-135 -49h-29q-85 0 -135.5 49t-50.5 128v168q0 79 50.5 128t135.5 49h29q84 0 135 -49t51 -128v-168zM339 167v168q0 30 -20.5 51t-50.5 21h-29q-29 0 -50.5 -21.5t-21.5 -50.5v-168q0 -29 21.5 -50.5t50.5 -21.5h29q30 0 50.5 21t20.5 51z" />
<glyph unicode="1" d="M437 10q0 -10 -10 -10h-323q-10 0 -10 10v85q0 10 10 10h94q10 0 10 10v175q0 8 -5.5 10.5t-11.5 -3.5l-30 -31q-7 -7 -14 0l-62 61q-7 7 0 14l167 168q3 3 7 3h54q10 0 10 -10v-387q0 -10 10 -10h94q10 0 10 -10v-85z" />
<glyph unicode="2" d="M455 340q0 -16 -3.5 -31t-7.5 -26t-14 -21l-16 -18q-6 -7 -20 -15l-22 -12q-7 -4 -23.5 -10t-23.5 -8l-25 -7q-18 -5 -23 -7q-65 -20 -80 -33q-13 -12 -13 -30v-8q0 -9 11 -9h244q10 0 10 -9v-87q0 -9 -10 -9h-365q-10 0 -10 9v72q0 39 11 70t25 49t40 33t43.5 21.5 t47.5 15.5q71 20 88 32q22 15 22 43q0 62 -76 62h-39q-52 0 -76 -58q-3 -9 -15 -6l-85 44q-8 5 -4 15q26 56 68 83t109 27h42q87 0 138.5 -47t51.5 -125z" />
<glyph unicode="3" d="M440 47q0 -85 -50.5 -135t-136.5 -50h-28q-70 0 -110 30t-65 84q-4 8 5 13l87 43q10 5 13 -6q22 -59 70 -59h28q29 0 50.5 21.5t21.5 50.5v34q0 30 -21 50.5t-51 20.5h-90q-10 0 -10 10v85q0 10 10 10h90q29 0 50.5 21.5t21.5 50.5v14q0 29 -21.5 50.5t-50.5 21.5h-28 q-46 0 -71 -59q-4 -9 -14 -5l-86 44q-8 4 -4 13q25 53 65 82.5t110 29.5h28q85 0 136 -51t51 -136v-14q0 -56 -54 -108q-7 -7 0 -14q22 -22 38 -54t16 -59v-29z" />
<glyph unicode="4" d="M484 10q0 -10 -10 -10h-65q-10 0 -10 -10v-109q0 -10 -10 -10h-95q-10 0 -10 10v109q0 10 -10 10h-236q-10 0 -10 10v85l261 402q4 4 8 4h92q10 0 10 -10v-376q0 -10 10 -10h65q10 0 10 -10v-85zM284 115v164q0 9 -7 11t-11 -5l-103 -164q-4 -7 -2 -11.5t10 -4.5h103 q10 0 10 10z" />
<glyph unicode="5" d="M447 46q0 -85 -50.5 -135t-135.5 -50h-29q-70 0 -110 30t-64 84q-4 8 5 13l86 43q10 5 13 -6q22 -59 70 -59h29q30 0 50.5 21t20.5 51v34q0 30 -20.5 50.5t-50.5 20.5h-167q-10 0 -10 10v338q0 10 10 10h333q10 0 10 -10v-85q0 -10 -10 -10h-218q-10 0 -10 -10v-128 q0 -10 10 -10h52q85 0 135.5 -49.5t50.5 -134.5v-18z" />
<glyph unicode="6" d="M464 167q0 -79 -51 -128t-136 -49h-30q-84 0 -135 49t-51 128v296q0 79 51 128t135 49h30q70 0 109.5 -29t67.5 -83q5 -9 -5 -14l-87 -42q-8 -4 -13 5q-25 58 -72 58h-30q-30 0 -50.5 -21t-20.5 -51v-91q0 -17 15 -9q36 19 66 19h30q75 0 126 -50t51 -127v-38zM349 167 v38q0 29 -21.5 50.5t-50.5 21.5h-30q-30 0 -50.5 -21t-20.5 -51v-38q0 -30 20.5 -51t50.5 -21h30q29 0 50.5 21.5t21.5 50.5z" />
<glyph unicode="7" d="M449 376q0 -46 -12 -82t-38 -64t-44.5 -43t-54.5 -39l-46 -33q-14 -10 -29 -31.5t-15 -45.5v-157q0 -10 -10 -10h-94q-10 0 -10 10v157q0 39 10 70.5t32 56t39.5 39.5t47.5 36q2 2 19.5 13.5t21 14t17.5 13.5t18 16l13 15q9 11 12 19.5t6 20.5t3 24v10q0 10 -10 10h-238 q-10 0 -10 10v85q0 10 10 10h352q10 0 10 -10v-115z" />
<glyph unicode="8" d="M454 175q0 -85 -50.5 -135t-135.5 -50h-29q-86 0 -136 50t-50 135v24q0 27 15.5 59t37.5 54q7 7 0 14q-22 21 -37.5 51t-15.5 57v19q0 86 50.5 136.5t135.5 50.5h29q85 0 135.5 -51t50.5 -136v-19q0 -27 -15.5 -57t-37.5 -51q-7 -7 0 -14q22 -22 37.5 -54t15.5 -59v-24z M339 444v19q0 30 -20.5 51t-50.5 21h-29q-29 0 -50.5 -21.5t-21.5 -50.5v-19q0 -29 21.5 -50.5t50.5 -21.5h29q30 0 50.5 21t20.5 51zM339 167v29q0 30 -20.5 50.5t-50.5 20.5h-29q-30 0 -51 -20.5t-21 -50.5v-29q0 -29 21.5 -50.5t50.5 -21.5h29q30 0 50.5 21t20.5 51z" />
<glyph unicode="9" d="M446 39q0 -79 -51 -128t-136 -49h-30q-70 0 -110 29.5t-64 84.5q-4 8 5 13l86 43q10 5 13 -6q22 -59 70 -59h30q29 0 50.5 21.5t21.5 50.5v57q0 17 -15 9q-34 -18 -66 -18h-30q-75 0 -126 49.5t-51 126.5v72q0 79 51 128t135 49h30q85 0 136 -49t51 -128v-296zM331 263 v72q0 29 -21.5 50.5t-50.5 21.5h-30q-30 0 -50.5 -21t-20.5 -51v-72q0 -30 20.5 -50.5t50.5 -20.5h30q30 0 51 20.5t21 50.5z" />
<glyph unicode=":" horiz-adv-x="230" d="M182 57q0 -27 -20 -47t-47 -20t-47 20t-20 47t20 47t47 20t47 -20t20 -47zM182 315q0 -27 -20 -47t-47 -20t-47 20t-20 47t20 47t47 20t47 -20t20 -47z" />
<glyph unicode=";" horiz-adv-x="230" d="M182 315q0 -27 -20 -47t-47 -20t-47 20t-20 47t20 47t47 20t47 -20t20 -47zM182 49q0 -105 -70 -155q-31 -23 -41 -23q-5 0 -8 6l-23 45q-6 12 -6 14q0 5 6 8q19 10 29 28.5t10 33.5q0 9 -10 9h-11q-10 0 -10 10v97q0 10 10 10h114q10 0 10 -10v-73z" />
<glyph unicode="&#x3c;" d="M429 406q0 -5 -6 -8l-248 -144q-7 -5 -7 -9t7 -9l247 -142q6 -3 6 -8q0 -1 -6 -13l-29 -52q-3 -6 -8 -6q-2 0 -20 10l-301 176q-5 3 -5 9v69q0 6 5 9l306 179q11 7 15 7q5 0 8 -6l30 -49q6 -10 6 -13z" />
<glyph unicode="=" d="M468 296q0 -10 -10 -10h-409q-10 0 -10 10v66q0 10 10 10h409q10 0 10 -10v-66zM468 125q0 -10 -10 -10h-409q-10 0 -10 10v65q0 10 10 10h409q10 0 10 -10v-65z" />
<glyph unicode="&#x3e;" d="M448 210q0 -6 -5 -9l-301 -176q-18 -10 -20 -10q-5 0 -8 6l-29 52q-6 12 -6 13q0 5 6 8l247 142q7 5 7 9t-7 9l-248 144q-6 3 -6 8q0 3 6 13l30 49q3 6 8 6q4 0 15 -7l306 -179q5 -3 5 -9v-69z" />
<glyph unicode="?" d="M292 57q0 -27 -20 -47t-47 -20t-47 20t-20 47t20 47t47 20t47 -20t20 -47zM450 463q0 -34 -9 -61t-18 -42t-31.5 -30.5t-32 -20.5t-35.5 -17q-20 -10 -30 -16t-19 -19t-9 -31q0 -14 3 -29.5t3 -16.5q0 -8 -10 -8h-95q-8 0 -10 8q-6 38 -6 60q0 77 68 119q10 7 52 28 q21 11 32.5 18.5t21.5 22.5t10 35q0 30 -20.5 51t-50.5 21h-36q-46 0 -71 -59q-3 -7 -8 -7q-2 0 -12 5l-80 41q-6 3 -6 7q0 5 19 37q52 81 158 81h36q84 0 135 -49t51 -128z" />
<glyph unicode="@" horiz-adv-x="707" d="M626 248q0 -42 -27.5 -68.5t-73.5 -26.5h-12q-40 0 -69 24q-8 5 -10 5q-3 0 -11 -6q-32 -23 -70 -23q-60 0 -96 34t-36 91v79q0 56 36 90t96 34q19 0 40 -8q10 -5 15 -5q7 0 7 7q0 6 8 6h52q10 0 10 -10v-218q0 -13 8 -21t21 -8h11q12 0 20.5 8.5t8.5 20.5v200 q0 47 -31.5 76t-82.5 29h-172q-52 0 -83.5 -29t-31.5 -76v-276q0 -47 31.5 -76t83.5 -29h262q10 0 10 -10v-52q0 -10 -10 -10h-262q-85 0 -135.5 49t-50.5 128v276q0 79 50.5 128t135.5 49h172q84 0 135 -49t51 -128v-205zM415 285v64q0 25 -18.5 42.5t-43.5 17.5 t-42.5 -17.5t-17.5 -42.5v-64q0 -26 17.5 -43.5t42.5 -17.5t43.5 18t18.5 43z" />
<glyph unicode="A" horiz-adv-x="470" d="M468 8q0 -8 -11 -8h-101q-9 0 -10 7l-30 105q-1 6 -10 6h-143q-9 0 -10 -6l-30 -105q-1 -7 -10 -7h-100q-11 0 -11 8q0 2 1 4.5t2 6.5t2 7l182 597q1 7 10 7h72q9 0 10 -7l182 -597q5 -15 5 -18zM282 232q0 4 -5 19l-29 117q-1 4 -5.5 27.5t-5.5 27.5h-3q-1 -4 -6 -27.5 t-6 -27.5l-30 -116q-5 -18 -5 -20q0 -9 11 -9h73q11 0 11 9z" />
<glyph unicode="B" horiz-adv-x="556" d="M498 184q0 -85 -50 -134.5t-136 -49.5h-225q-10 0 -10 10v610q0 10 10 10h225q85 0 135.5 -50.5t50.5 -135.5v-10q0 -57 -53 -108q-4 -3 -4 -7t4 -7q22 -21 37.5 -53.5t15.5 -59.5v-15zM384 444v9q0 29 -21.5 50.5t-50.5 21.5h-110q-10 0 -10 -10v-133q0 -10 10 -10h110 q29 0 50.5 21.5t21.5 50.5zM384 177v19q0 30 -21 50.5t-51 20.5h-110q-10 0 -10 -10v-142q0 -10 10 -10h110q30 0 51 21t21 51z" />
<glyph unicode="C" horiz-adv-x="504" d="M475 108q0 -5 -19 -37q-52 -81 -158 -81h-49q-85 0 -135.5 49t-50.5 128v296q0 79 50.5 128t135.5 49h49q106 0 158 -81q19 -32 19 -37q0 -4 -6 -7l-80 -41q-10 -5 -12 -5q-5 0 -8 7q-25 59 -71 59h-49q-29 0 -50.5 -21.5t-21.5 -50.5v-296q0 -29 21.5 -50.5t50.5 -21.5 h49q46 0 71 59q3 7 8 7q2 0 12 -5l80 -41q6 -3 6 -7z" />
<glyph unicode="D" horiz-adv-x="561" d="M498 186q0 -86 -50 -136t-136 -50h-225q-10 0 -10 10v610q0 10 10 10h225q85 0 135.5 -50.5t50.5 -135.5v-258zM384 177v276q0 29 -21.5 50.5t-50.5 21.5h-110q-10 0 -10 -10v-400q0 -10 10 -10h110q30 0 51 21t21 51z" />
<glyph unicode="E" horiz-adv-x="498" d="M450 10q0 -10 -10 -10h-353q-10 0 -10 10v610q0 10 10 10h353q10 0 10 -10v-85q0 -10 -10 -10h-238q-10 0 -10 -10v-133q0 -10 10 -10h195q10 0 10 -10v-85q0 -10 -10 -10h-195q-10 0 -10 -10v-142q0 -10 10 -10h238q10 0 10 -10v-85z" />
<glyph unicode="F" horiz-adv-x="474" d="M450 535q0 -10 -10 -10h-238q-10 0 -10 -10v-133q0 -10 10 -10h195q10 0 10 -10v-85q0 -10 -10 -10h-195q-10 0 -10 -10v-247q0 -10 -10 -10h-95q-10 0 -10 10v610q0 10 10 10h353q10 0 10 -10v-85z" />
<glyph unicode="G" horiz-adv-x="547" d="M492 522q0 -4 -6 -7l-80 -41q-10 -5 -12 -5q-5 0 -8 7q-25 59 -71 59h-66q-29 0 -50.5 -21.5t-21.5 -50.5v-296q0 -29 21.5 -50.5t50.5 -21.5h49q30 0 50.5 21t20.5 51v47q0 10 -10 10h-94q-10 0 -10 10v85q0 10 10 10h209q10 0 10 -10v-152q0 -79 -51 -128t-135 -49h-49 q-85 0 -135.5 49t-50.5 128v296q0 79 50.5 128t135.5 49h66q106 0 158 -81q19 -32 19 -37z" />
<glyph unicode="H" horiz-adv-x="590" d="M512 10q0 -10 -10 -10h-94q-10 0 -10 10v247q0 10 -10 10h-186q-10 0 -10 -10v-247q0 -10 -10 -10h-95q-10 0 -10 10v610q0 10 10 10h95q10 0 10 -10v-238q0 -10 10 -10h186q10 0 10 10v238q0 10 10 10h94q10 0 10 -10v-610z" />
<glyph unicode="I" horiz-adv-x="269" d="M192 10q0 -10 -10 -10h-95q-10 0 -10 10v610q0 10 10 10h95q10 0 10 -10v-610z" />
<glyph unicode="J" horiz-adv-x="449" d="M378 177q0 -78 -54.5 -132.5t-131.5 -54.5q-42 0 -83 21.5t-71 57.5q-26 31 -26 41q0 5 7 8l76 36q16 7 18 7q5 0 8 -6q22 -60 71 -60q30 0 50.5 21t20.5 51v453q0 10 10 10h95q10 0 10 -10v-443z" />
<glyph unicode="K" horiz-adv-x="541" d="M542 8q0 -8 -11 -8h-117q-5 0 -8 5l-157 251q-5 7 -9 7q-5 0 -8 -5l-32 -43q-8 -11 -8 -24v-181q0 -10 -10 -10h-95q-10 0 -10 10v610q0 10 10 10h95q10 0 10 -10v-222q0 -12 9 -12q5 0 9 6l178 234q4 4 8 4h115q11 0 11 -8q0 -4 -3 -8l-188 -233q-7 -9 -7 -13 q0 -2 6 -13l205 -332q7 -12 7 -15z" />
<glyph unicode="L" horiz-adv-x="474" d="M450 10q0 -10 -10 -10h-353q-10 0 -10 10v610q0 10 10 10h95q10 0 10 -10v-505q0 -10 10 -10h238q10 0 10 -10v-85z" />
<glyph unicode="M" horiz-adv-x="657" d="M579 10q0 -10 -10 -10h-94q-10 0 -10 10v105q0 110 11 242l-4 1q-1 -2 -5 -17.5t-10 -33.5t-11 -29l-83 -186q-3 -6 -9 -6h-51q-6 0 -9 6l-83 186q-5 11 -11 29t-10 33.5t-5 17.5l-4 -1q11 -132 11 -242v-105q0 -10 -10 -10h-95q-10 0 -10 10v610q0 10 10 10h84q6 0 9 -6 l133 -318q4 -10 13 -45h3q7 30 14 45l133 318q3 6 9 6h84q10 0 10 -10v-610z" />
<glyph unicode="N" horiz-adv-x="570" d="M492 10q0 -10 -10 -10h-83q-6 0 -9 5l-179 326q-5 10 -21 51l-4 -1q6 -72 6 -247v-124q0 -10 -10 -10h-95q-10 0 -10 10v610q0 10 10 10h84q6 0 9 -5l179 -328q5 -10 21 -51l4 1q-6 72 -6 247v126q0 10 10 10h94q10 0 10 -10v-610z" />
<glyph unicode="O" horiz-adv-x="547" d="M484 167q0 -79 -51 -128t-135 -49h-49q-85 0 -135.5 49t-50.5 128v296q0 79 50.5 128t135.5 49h49q84 0 135 -49t51 -128v-296zM369 167v296q0 30 -20.5 51t-50.5 21h-49q-29 0 -50.5 -21.5t-21.5 -50.5v-296q0 -29 21.5 -50.5t50.5 -21.5h49q30 0 50.5 21t20.5 51z" />
<glyph unicode="P" horiz-adv-x="503" d="M478 444q0 -76 -51 -126.5t-135 -50.5h-90q-10 0 -10 -10v-247q0 -10 -10 -10h-95q-10 0 -10 10v610q0 10 10 10h205q85 0 135.5 -51t50.5 -135zM364 444v9q0 29 -21.5 50.5t-50.5 21.5h-90q-10 0 -10 -10v-133q0 -10 10 -10h90q29 0 50.5 21.5t21.5 50.5z" />
<glyph unicode="Q" horiz-adv-x="547" d="M484 167q0 -69 -40.5 -116.5t-110.5 -57.5q-7 -1 -7 -10v-59q0 -10 -10 -10h-85q-10 0 -10 10v59q0 8 -10 10q-69 10 -108.5 57t-39.5 117v296q0 79 50.5 128t135.5 49h49q84 0 135 -49t51 -128v-296zM369 167v296q0 30 -20.5 51t-50.5 21h-49q-29 0 -50.5 -21.5 t-21.5 -50.5v-296q0 -27 17 -46q13 -15 22 -15q6 0 9 8l13 40q3 7 10 7h51q7 0 10 -7l13 -42q3 -8 8 -8q6 0 20 14q19 22 19 49z" />
<glyph unicode="R" horiz-adv-x="547" d="M509 8q0 -8 -10 -8h-103q-7 0 -9 7l-88 254q-1 6 -8 6h-89q-10 0 -10 -10v-247q0 -10 -10 -10h-95q-10 0 -10 10v610q0 10 10 10h225q85 0 135.5 -50.5t50.5 -135.5v-10q0 -36 -25 -75.5t-56 -60.5q-4 -3 -4 -8q0 -3 5 -16l86 -250q1 -3 2 -6.5t2 -6t1 -3.5zM384 444v9 q0 29 -21.5 50.5t-50.5 21.5h-110q-10 0 -10 -10v-133q0 -10 10 -10h110q29 0 50.5 21.5t21.5 50.5z" />
<glyph unicode="S" horiz-adv-x="492" d="M447 167q0 -79 -50.5 -128t-135.5 -49h-40q-106 0 -158 81q-19 32 -19 37q0 4 6 7l80 41q10 5 12 5q5 0 8 -7q25 -59 71 -59h40q29 0 50.5 21.5t21.5 50.5q0 34 -24 53.5t-71 40.5q-8 3 -12 5q-33 16 -49 24.5t-42.5 27t-40 36.5t-24 46.5t-10.5 62.5q0 79 50.5 128 t135.5 49h16q106 0 158 -81q19 -32 19 -37q0 -4 -6 -7l-80 -41q-10 -5 -12 -5q-5 0 -8 7q-25 59 -71 59h-16q-29 0 -50.5 -21.5t-21.5 -50.5q0 -15 5.5 -26t20 -21.5t23.5 -15.5t34 -15.5t33 -14.5q34 -16 57.5 -30.5t48.5 -38t38 -57.5t13 -77z" />
<glyph unicode="T" horiz-adv-x="422" d="M397 535q0 -10 -10 -10h-109q-10 0 -10 -10v-505q0 -10 -10 -10h-94q-10 0 -10 10v505q0 10 -10 10h-109q-10 0 -10 10v85q0 10 10 10h352q10 0 10 -10v-85z" />
<glyph unicode="U" horiz-adv-x="547" d="M484 167q0 -79 -51 -128t-135 -49h-49q-85 0 -135.5 49t-50.5 128v453q0 10 10 10h94q10 0 10 -10v-453q0 -29 21.5 -50.5t50.5 -21.5h49q30 0 50.5 21t20.5 51v453q0 10 10 10h95q10 0 10 -10v-453z" />
<glyph unicode="V" horiz-adv-x="470" d="M468 622q0 -2 -1 -4.5t-2 -6t-1 -4.5l-183 -600q-1 -7 -10 -7h-72q-9 0 -10 7l-182 596q-5 17 -5 19q0 8 11 8h100q9 0 10 -7l99 -360q1 -4 5 -23t5 -23h5q1 3 5 21.5t5 22.5l99 362q1 7 10 7h101q11 0 11 -8z" />
<glyph unicode="W" horiz-adv-x="677" d="M664 622q0 -2 -5 -27l-127 -587q-2 -8 -10 -8h-73q-9 0 -10 7l-87 302q-1 4 -6 28t-6 27h-3q-1 -4 -6 -27.5t-6 -27.5l-87 -302q-1 -7 -10 -7h-73q-8 0 -10 8l-127 587q-1 4 -2 10.5t-2 10.5t-1 6q0 8 10 8h102q8 0 10 -8l58 -309q7 -51 10 -62h5q1 4 6.5 31t6.5 31 l82 312q1 7 10 7h50q9 0 10 -7l82 -312q1 -4 6.5 -31t6.5 -31h5q1 4 5 31t5 31l59 309q2 8 10 8h102q10 0 10 -8z" />
<glyph unicode="X" horiz-adv-x="478" d="M463 8q0 -8 -11 -8h-109q-6 0 -9 6l-85 181q-3 8 -9 8t-9 -8l-88 -181q-4 -6 -9 -6h-107q-11 0 -11 8q0 1 11 25l135 267q6 12 6 16q0 2 -5 14l-139 273q-8 16 -8 19q0 8 11 8h106q5 0 9 -6l89 -184q3 -8 9 -8t9 8l86 184q3 6 9 6h108q11 0 11 -8q0 -2 -8 -18l-137 -273 q-5 -9 -5 -16q0 -6 5 -15l135 -270q10 -20 10 -22z" />
<glyph unicode="Y" horiz-adv-x="470" d="M469 622q0 -2 -7 -16l-163 -305q-7 -14 -7 -28v-263q0 -10 -10 -10h-95q-10 0 -10 10v264q0 13 -7 27l-163 305q-7 12 -7 16q0 8 11 8h111q5 0 9 -6l95 -196q3 -8 9 -8t9 8l95 196q4 6 9 6h110q11 0 11 -8z" />
<glyph unicode="Z" horiz-adv-x="476" d="M419 622q0 -2 -7 -19l-213 -473q-6 -12 -6 -17q0 -8 10 -8h203q10 0 10 -10v-85q0 -10 -10 -10h-375q-10 0 -10 8q0 3 7 19l211 471q7 14 7 19q0 8 -10 8h-182q-10 0 -10 10v85q0 10 10 10h355q10 0 10 -8z" />
<glyph unicode="[" horiz-adv-x="394" d="M312 -162q0 -10 -10 -10h-180q-10 0 -10 10v877q0 10 10 10h180q10 0 10 -10v-85q0 -10 -10 -10h-66q-10 0 -10 -10v-667q0 -10 10 -10h66q10 0 10 -10v-85z" />
<glyph unicode="\" horiz-adv-x="330" d="M337 8q0 -8 -10 -8h-63q-6 0 -9 6l-257 600q-5 10 -5 16q0 8 10 8h63q6 0 9 -6l256 -598q6 -16 6 -18z" />
<glyph unicode="]" horiz-adv-x="394" d="M282 -162q0 -10 -10 -10h-180q-10 0 -10 10v85q0 10 10 10h65q10 0 10 10v667q0 10 -10 10h-65q-10 0 -10 10v85q0 10 10 10h180q10 0 10 -10v-877z" />
<glyph unicode="^" horiz-adv-x="1142" d="M408 411q0 -7 -8 -7h-203q-9 0 -9 -9v-84q0 -8 9 -8h167q9 0 9 -7v-83q0 -8 -9 -8h-167q-9 0 -9 -8v-189q0 -8 -8 -8h-97q-7 0 -7 8v485q0 8 7 8h317q8 0 8 -8v-82zM847 411q0 -7 -8 -7h-203q-9 0 -9 -9v-84q0 -8 9 -8h167q9 0 9 -7v-83q0 -8 -9 -8h-167q-9 0 -9 -8v-189 q0 -8 -8 -8h-97q-7 0 -7 8v485q0 8 7 8h317q8 0 8 -8v-82zM1066 8q0 -8 -8 -8h-97q-7 0 -7 8v485q0 8 7 8h97q8 0 8 -8v-485z" />
<glyph unicode="_" horiz-adv-x="230" d="M242 -205q0 -10 -10 -10h-228q-10 0 -10 10v52q0 10 10 10h228q10 0 10 -10v-52z" />
<glyph unicode="`" horiz-adv-x="500" d="M316 565q0 -8 -10 -8h-68q-7 0 -16 7l-142 140q-7 7 -7 12q0 8 11 8h122q9 0 14 -8l90 -138q6 -10 6 -13z" />
<glyph unicode="a" horiz-adv-x="444" d="M429 10q5 -10 -7 -10h-103q-5 0 -7 6l-24 72q-2 5 -10 5h-113q-8 0 -9 -5l-25 -72q-1 -6 -8 -6h-101q-11 0 -8 10l164 486q2 5 8 5h73q5 0 7 -5zM263 172l-25 99q-4 16 -7.5 36t-5 32t-1.5 13h-2q0 -27 -15 -81l-27 -99q-2 -8 8 -8h67q10 0 8 8z" />
<glyph unicode="b" horiz-adv-x="512" d="M454 143q0 -65 -43 -104t-119 -39h-209q-7 0 -7 8v485q0 8 7 8h209q77 0 119.5 -36.5t42.5 -104.5v-18q0 -26 -13.5 -49t-36.5 -34q-12 -7 0 -12q22 -11 36 -34t14 -50v-20zM343 343v13q0 20 -14 34t-37 14h-95q-9 0 -9 -9v-90q0 -8 9 -8h95q24 0 37.5 12.5t13.5 33.5z M343 144v21q0 19 -14 32.5t-37 13.5h-95q-9 0 -9 -8v-97q0 -8 9 -8h95q21 0 36 14t15 32z" />
<glyph unicode="c" horiz-adv-x="472" d="M433 85q-27 -50 -62.5 -73t-91.5 -23h-51q-76 0 -120 39.5t-44 104.5v234q0 66 44 105.5t120 39.5h51q56 0 91.5 -23t62.5 -73q6 -10 -1 -14l-83 -38q-7 -3 -13 5q-26 45 -62 45h-46q-24 0 -39 -13t-15 -34v-234q0 -20 15 -33.5t39 -13.5h46q35 0 62 46q5 9 13 6l83 -38 q7 -4 1 -15z" />
<glyph unicode="d" horiz-adv-x="518" d="M454 152q0 -70 -44 -111t-118 -41h-209q-7 0 -7 8v485q0 8 7 8h209q74 0 118 -41t44 -111v-197zM343 144v212q0 18 -15 33t-36 15h-95q-9 0 -9 -9v-289q0 -8 9 -8h95q21 0 36 14t15 32z" />
<glyph unicode="e" horiz-adv-x="456" d="M408 8q0 -8 -8 -8h-317q-7 0 -7 8v485q0 8 7 8h317q8 0 8 -8v-82q0 -7 -8 -7h-203q-9 0 -9 -9v-84q0 -8 9 -8h167q9 0 9 -7v-83q0 -8 -9 -8h-167q-9 0 -9 -8v-91q0 -8 9 -8h203q8 0 8 -8v-82z" />
<glyph unicode="f" horiz-adv-x="439" d="M408 411q0 -7 -8 -7h-203q-9 0 -9 -9v-84q0 -8 9 -8h167q9 0 9 -7v-83q0 -8 -9 -8h-167q-9 0 -9 -8v-189q0 -8 -8 -8h-97q-7 0 -7 8v485q0 8 7 8h317q8 0 8 -8v-82z" />
<glyph unicode="g" horiz-adv-x="502" d="M444 416q4 -10 -3 -14l-82 -38q-7 -3 -13 5q-26 45 -62 45h-56q-24 0 -39 -13t-15 -34v-234q0 -19 15.5 -32.5t38.5 -13.5h51q22 0 36.5 13t14.5 33v42q0 8 -9 8h-70q-8 0 -8 8v70q0 8 8 8h184q7 0 7 -8v-128q0 -67 -43 -105.5t-120 -38.5h-51q-77 0 -120.5 38.5 t-43.5 105.5v234q0 66 44 105.5t120 39.5h60q56 0 92.5 -23t63.5 -73z" />
<glyph unicode="h" horiz-adv-x="542" d="M466 8q0 -8 -8 -8h-95q-8 0 -8 8v189q0 8 -9 8h-149q-9 0 -9 -8v-189q0 -8 -8 -8h-97q-7 0 -7 8v485q0 8 7 8h97q8 0 8 -8v-182q0 -8 9 -8h149q9 0 9 8v182q0 8 8 8h95q8 0 8 -8v-485z" />
<glyph unicode="i" horiz-adv-x="264" d="M188 8q0 -8 -8 -8h-97q-7 0 -7 8v485q0 8 7 8h97q8 0 8 -8v-485z" />
<glyph unicode="j" horiz-adv-x="401" d="M337 146q0 -72 -44 -113.5t-122 -41.5q-112 0 -156 100q-5 7 3 12l87 38q7 4 12 -4q21 -48 59 -48q22 0 35.5 13.5t13.5 33.5v357q0 8 7 8h97q8 0 8 -8v-347z" />
<glyph unicode="k" horiz-adv-x="493" d="M485 12q8 -12 -6 -12h-126q-6 0 -12 6l-116 184q-5 11 -13 1l-24 -29v-154q0 -8 -8 -8h-97q-7 0 -7 8v485q0 8 7 8h97q8 0 8 -8v-143q0 -34 -2 -42l152 188q3 5 10 5h117q15 0 6 -13l-169 -193q-4 -4 0 -8z" />
<glyph unicode="l" horiz-adv-x="419" d="M408 8q0 -8 -8 -8h-317q-7 0 -7 8v485q0 8 7 8h97q8 0 8 -8v-387q0 -8 9 -8h203q8 0 8 -8v-82z" />
<glyph unicode="m" horiz-adv-x="609" d="M530 8q0 -8 -8 -8h-92q-7 0 -7 8v125q0 31 1.5 68.5t3.5 62.5l1 25h-3q0 -2 -2 -12t-7 -26.5t-10 -29.5l-62 -150q-1 -8 -11 -8h-61q-9 0 -13 8l-60 152q-5 12 -10 28t-8 27l-3 11h-2l1 -24q2 -24 4 -61.5t2 -69.5v-126q0 -8 -8 -8h-93q-7 0 -7 8v485q0 8 7 8h97 q6 0 8 -5l105 -259q3 -6 5 -14t4 -13l1 -4h3q0 3 10 31l102 259q2 5 9 5h95q8 0 8 -8v-485z" />
<glyph unicode="n" horiz-adv-x="517" d="M441 8q0 -8 -8 -8h-84q-3 0 -8 6l-140 253q-16 28 -16 34h-3l1 -23q1 -23 2 -57t1 -62v-143q0 -8 -9 -8h-94q-7 0 -7 8v485q0 8 7 8h84q7 0 10 -6l139 -257l8 -16q4 -9 6 -15l3 -6h3q0 1 -1 23.5t-1.5 57.5t-0.5 65v146q0 8 7 8h93q8 0 8 -8v-485z" />
<glyph unicode="o" horiz-adv-x="506" d="M442 133q0 -64 -45 -104t-118 -40h-51q-74 0 -119 40t-45 104v234q0 65 45.5 105t118.5 40h51q73 0 118 -40t45 -105v-234zM330 133v235q0 20 -14.5 33t-36.5 13h-51q-22 0 -38 -13.5t-16 -32.5v-235q0 -20 14.5 -33t39.5 -13h51q22 0 36.5 13t14.5 33z" />
<glyph unicode="p" horiz-adv-x="457" d="M431 334q0 -58 -45.5 -93.5t-117.5 -35.5h-71q-9 0 -9 -8v-189q0 -8 -8 -8h-97q-7 0 -7 8v485q0 8 7 8h185q75 0 119 -37t44 -104v-26zM322 340v19q0 19 -14 32t-37 13h-74q-9 0 -9 -9v-90q0 -8 9 -8h74q23 0 37 12t14 31z" />
<glyph unicode="q" horiz-adv-x="506" d="M442 130q0 -57 -35 -94t-95 -47q-7 -1 -7 -8v-58q0 -9 -9 -9h-89q-8 0 -8 9v58q0 5 -7 8q-59 10 -93.5 47.5t-34.5 93.5v236q0 65 45.5 105t118.5 40h51q73 0 118 -40t45 -105v-236zM330 123v244q0 20 -14.5 33.5t-36.5 13.5h-51q-22 0 -38 -14t-16 -33v-244 q0 -22 23 -34q6 -4 9 2l15 43q5 8 11 8h39q9 0 12 -8l15 -42q4 -10 10 -2q22 8 22 33z" />
<glyph unicode="r" horiz-adv-x="511" d="M469 10q4 -10 -7 -10h-103q-5 0 -7 6l-77 194q-3 5 -7 5h-71q-9 0 -9 -8v-189q0 -8 -8 -8h-97q-7 0 -7 8v485q0 8 7 8h209q74 0 118 -41t44 -111v-7q0 -35 -17 -64t-45 -44q-7 -4 -4 -16zM343 343v13q0 21 -14 34.5t-37 13.5h-95q-9 0 -9 -9v-90q0 -8 9 -8h95 q23 0 37 12.5t14 33.5z" />
<glyph unicode="s" horiz-adv-x="443" d="M396 140q0 -70 -43.5 -110.5t-121.5 -40.5h-31q-106 0 -152 83q-6 10 2 15l70 46q11 7 14 -3q25 -43 65 -43h31q23 0 38 14.5t15 36.5q0 7 -1.5 12.5t-5 10.5t-7 9t-10.5 8l-11 6q-5 3 -15 7l-15 6l-18 7l-17 6q-68 25 -100.5 57t-32.5 94q0 69 44.5 110t120.5 41h16 q105 0 153 -82q7 -11 -2 -16l-70 -45q-10 -8 -15 2q-23 43 -65 43h-17q-23 0 -37 -13.5t-14 -36.5q0 -16 14.5 -29t31.5 -19l43 -17l9 -3q69 -24 101.5 -58t32.5 -98z" />
<glyph unicode="t" horiz-adv-x="377" d="M357 411q0 -7 -7 -7h-96q-10 0 -10 -9v-387q0 -8 -7 -8h-97q-7 0 -7 8v387q0 9 -10 9h-95q-8 0 -8 7v82q0 8 8 8h322q7 0 7 -8v-82z" />
<glyph unicode="u" horiz-adv-x="517" d="M448 133q0 -64 -45.5 -104t-118.5 -40h-51q-74 0 -118.5 40t-44.5 104v360q0 8 7 8h95q7 0 7 -8v-360q0 -21 14.5 -33.5t39.5 -12.5h51q24 0 38 12.5t14 33.5v360q0 8 8 8h96q8 0 8 -8v-360z" />
<glyph unicode="v" horiz-adv-x="444" d="M429 491l-163 -485q-3 -6 -8 -6h-72q-6 0 -8 6l-164 485q-3 10 8 10h103q7 0 8 -5l76 -254q10 -32 13 -59h3q1 20 13 59l72 254q1 5 8 5h104q11 0 7 -10z" />
<glyph unicode="w" horiz-adv-x="604" d="M585 492l-115 -485q-1 -7 -8 -7h-77q-5 0 -7 6l-68 261q-2 7 -4 17l-2 17q-1 7 -1 8h-3q0 -19 -6 -42l-67 -261q-1 -6 -8 -6h-77q-6 0 -7 7l-117 485q-4 9 7 9h102q7 0 8 -6l50 -267q5 -23 5 -44h3q0 22 6 44l64 266q2 7 9 7h65q7 0 9 -6l58 -267q2 -7 3 -18t2 -18l1 -8 h2l1 8q1 7 2.5 18.5t2.5 18.5l51 266q1 6 8 6h101q11 0 7 -9z" />
<glyph unicode="x" horiz-adv-x="471" d="M440 490l-135 -234q-4 -7 1 -14l132 -231q7 -11 -7 -11h-106q-11 0 -14 9l-70 135q-1 4 -4.5 4t-5.5 -4l-70 -135q-5 -9 -15 -9h-106q-14 0 -7 12l133 231q3 8 0 13l-135 234q-3 4 -1 7.5t7 3.5h109q9 0 12 -6l73 -139q6 -11 11 0l70 139q4 6 12 6h110q5 0 7 -3.5 t-1 -7.5z" />
<glyph unicode="y" horiz-adv-x="395" d="M408 489l-154 -263v-218q0 -8 -9 -8h-95q-8 0 -8 8v218l-154 263q-7 12 7 12h110q7 0 11 -7l74 -138q8 -13 15 0l76 138q3 7 11 7h109q14 0 7 -12z" />
<glyph unicode="z" horiz-adv-x="431" d="M395 490l-192 -381q-5 -11 9 -11h168q8 0 8 -8v-82q0 -8 -8 -8h-339q-13 0 -7 11l191 381q6 12 -9 12h-151q-8 0 -8 7v82q0 8 8 8h322q12 0 8 -11z" />
<glyph unicode="{" horiz-adv-x="458" d="M376 -162q0 -10 -10 -10q-40 0 -87 19q-103 44 -103 167v139q0 28 -20 47.5t-57 22.5q-9 0 -9 10v87q0 10 9 10q37 3 57 22.5t20 48.5v138q0 124 104 168q42 18 86 18q10 0 10 -10v-86q0 -10 -9 -10q-37 -3 -57 -22.5t-20 -47.5v-158q0 -27 -15.5 -57t-37.5 -51 q-4 -3 -4 -7q0 -3 4 -7q22 -22 37.5 -54t15.5 -59v-151q0 -29 20 -48.5t57 -22.5q9 0 9 -10v-86z" />
<glyph unicode="|" horiz-adv-x="1297" d="M408 411q0 -7 -8 -7h-203q-9 0 -9 -9v-84q0 -8 9 -8h167q9 0 9 -7v-83q0 -8 -9 -8h-167q-9 0 -9 -8v-189q0 -8 -8 -8h-97q-7 0 -7 8v485q0 8 7 8h317q8 0 8 -8v-82zM847 411q0 -7 -8 -7h-203q-9 0 -9 -9v-84q0 -8 9 -8h167q9 0 9 -7v-83q0 -8 -9 -8h-167q-9 0 -9 -8v-189 q0 -8 -8 -8h-97q-7 0 -7 8v485q0 8 7 8h317q8 0 8 -8v-82zM1286 8q0 -8 -8 -8h-317q-7 0 -7 8v485q0 8 7 8h97q8 0 8 -8v-387q0 -8 9 -8h203q8 0 8 -8v-82z" />
<glyph unicode="}" horiz-adv-x="458" d="M368 233q0 -10 -9 -10q-37 -3 -57 -22.5t-20 -47.5v-139q0 -123 -103 -167q-47 -19 -87 -19q-10 0 -10 10v86q0 10 9 10q37 3 57 22.5t20 48.5v151q0 27 15.5 59t37.5 54q4 4 4 7q0 4 -4 7q-22 21 -37.5 51t-15.5 57v158q0 28 -20 47.5t-57 22.5q-9 0 -9 10v86 q0 10 10 10q44 0 86 -18q104 -44 104 -168v-138q0 -29 20 -48.5t57 -22.5q9 0 9 -10v-87z" />
<glyph unicode="~" horiz-adv-x="878" d="M408 411q0 -7 -8 -7h-203q-9 0 -9 -9v-84q0 -8 9 -8h167q9 0 9 -7v-83q0 -8 -9 -8h-167q-9 0 -9 -8v-189q0 -8 -8 -8h-97q-7 0 -7 8v485q0 8 7 8h317q8 0 8 -8v-82zM847 411q0 -7 -8 -7h-203q-9 0 -9 -9v-84q0 -8 9 -8h167q9 0 9 -7v-83q0 -8 -9 -8h-167q-9 0 -9 -8v-189 q0 -8 -8 -8h-97q-7 0 -7 8v485q0 8 7 8h317q8 0 8 -8v-82z" />
<glyph unicode="&#xa0;" />
<glyph unicode="&#xa1;" horiz-adv-x="306" d="M220 445q0 -27 -20 -47t-47 -20t-47 20t-20 47t20 47t47 20t47 -20t20 -47zM210 -118q0 -10 -10 -10h-94q-10 0 -10 10v261l21 178q1 9 10 9h50q9 0 10 -9l23 -178v-261z" />
<glyph unicode="&#xa2;" d="M479 134q0 -6 -19 -36q-49 -76 -145 -82q-8 0 -8 -10v-56q0 -10 -10 -10h-52q-10 0 -10 10v57q0 10 -10 10q-77 7 -122 54.5t-45 121.5v124q0 74 45 121.5t122 54.5q10 0 10 10v57q0 10 10 10h52q10 0 10 -10v-56q0 -10 8 -10q93 -5 143 -77q21 -31 21 -39q0 -6 -6 -9 l-75 -37q-12 -7 -17 -7t-8 6q-15 31 -34 47q-14 11 -24 11q-8 0 -8 -12v-244q0 -10 7 -10q13 0 31 16q17 15 28 42q3 6 8 6t17 -7l75 -37q6 -3 6 -9zM235 134v242q0 12 -9 12q-10 0 -25 -12q-28 -21 -28 -59v-124q0 -39 30 -60q13 -10 23 -10q9 0 9 11z" />
<glyph unicode="&#xa3;" d="M488 523q0 -6 -6 -9l-72 -36q-18 -8 -20 -8q-5 0 -8 6q-25 59 -71 59q-29 0 -50.5 -21.5t-21.5 -50.5v-81q0 -10 10 -10h66q10 0 10 -10v-85q0 -10 -10 -10h-66q-10 0 -10 -10v-90q0 -15 -5.5 -33.5t-5.5 -19.5q0 -9 10 -9h206q10 0 10 -10v-85q0 -10 -10 -10h-438 q-10 0 -10 10v85q0 10 10 10h56q27 5 45 25t18 47v80q0 10 -10 10h-23q-10 0 -10 10v85q0 10 10 10h23q10 0 10 10v71q0 77 55 132t131 55q97 0 150 -70q27 -35 27 -47z" />
<glyph unicode="&#xa4;" d="M489 105q-18 -37 -39 -61q-49 -54 -137 -54h-49q-85 0 -135.5 49t-50.5 128v10q0 10 -10 10h-58q-10 0 -10 10v76q0 10 10 10h58q10 0 10 10v46q0 10 -10 10h-58q-10 0 -10 10v76q0 10 10 10h58q10 0 10 10v8q0 79 50.5 128t135.5 49h49q83 0 130 -47q22 -21 46 -65 q5 -9 -5 -14l-87 -43q-8 -4 -13 5q-25 59 -71 59h-49q-29 0 -50.5 -21.5t-21.5 -50.5v-8q0 -10 10 -10h117q10 0 10 -10v-76q0 -10 -10 -10h-117q-10 0 -10 -10v-46q0 -10 10 -10h117q10 0 10 -10v-76q0 -10 -10 -10h-117q-10 0 -10 -10v-10q0 -29 21.5 -50.5t50.5 -21.5h49 q46 0 71 61q5 9 13 5l87 -43q9 -5 5 -13z" />
<glyph unicode="&#xa5;" d="M488 622q0 -2 -9 -20l-125 -234q-7 -14 -7 -16q0 -8 11 -8h105q10 0 10 -10v-76q0 -10 -10 -10h-142q-10 0 -10 -10v-46q0 -10 10 -10h142q10 0 10 -10v-76q0 -10 -10 -10h-142q-10 0 -10 -10v-66q0 -10 -10 -10h-95q-10 0 -10 10v66q0 10 -10 10h-142q-10 0 -10 10v76 q0 10 10 10h142q10 0 10 10v46q0 10 -10 10h-142q-10 0 -10 10v76q0 10 10 10h105q11 0 11 8q0 3 -6 15l-129 240q-6 11 -6 15q0 8 11 8h110q5 0 9 -6l95 -196q3 -8 9 -8t9 8l95 196q4 6 9 6h111q11 0 11 -8z" />
<glyph unicode="&#xa6;" horiz-adv-x="250" d="M168 367h-86v358h86v-358zM168 -172h-86v358h86v-358z" />
<glyph unicode="&#xa7;" d="M455 -58q0 -79 -51 -128t-135 -49h-40q-106 0 -158 81q-19 32 -19 37q0 4 6 7l80 41q10 5 12 5q5 0 8 -7q25 -59 71 -59h40q30 0 50.5 21t20.5 51q0 36 -28 61.5t-68 42.5t-80.5 37.5t-68.5 59.5t-28 95v20q0 49 21 88q6 10 6 14t-6 14q-21 36 -21 89q0 79 51 128t135 49 h16q106 0 158 -81q19 -32 19 -37q0 -4 -6 -7l-80 -41q-10 -5 -12 -5q-5 0 -8 7q-25 59 -71 59h-16q-30 0 -50.5 -21t-20.5 -51q0 -32 28 -54.5t68 -39.5t80.5 -38.5t68.5 -63t28 -100.5v-20q0 -44 -21 -84q-7 -14 -7 -15q0 -3 5 -12q23 -43 23 -94zM340 140v27 q0 12 -3.5 22.5t-7.5 18t-14 16t-16 13t-21.5 12t-22 10t-25 10.5t-24.5 10q-12 5 -15 5q-9 0 -9 -15v-31q0 -14 6 -25.5t13 -19t23 -16.5t25.5 -13.5t32 -13.5t31.5 -13q16 -7 19 -7q8 0 8 10z" />
<glyph unicode="&#xa8;" horiz-adv-x="500" d="M396 641q0 -26 -18 -44t-44 -18t-44 18t-18 44t18 44t44 18t44 -18t18 -44zM227 641q0 -26 -18 -44t-44 -18t-44 18t-18 44t18 44t44 18t44 -18t18 -44z" />
<glyph unicode="&#xa9;" horiz-adv-x="707" d="M626 117q0 -79 -51 -128t-135 -49h-172q-85 0 -135.5 49t-50.5 128v276q0 79 50.5 128t135.5 49h172q84 0 135 -49t51 -128v-276zM554 117v276q0 47 -31.5 76t-82.5 29h-172q-52 0 -83.5 -29t-31.5 -76v-276q0 -47 31.5 -76t83.5 -29h172q51 0 82.5 29t31.5 76zM480 167 q0 -11 -22 -37q-37 -45 -105 -45q-61 0 -98.5 36t-37.5 93v94q0 58 37 92.5t99 34.5q67 0 106 -46q21 -24 21 -33q0 -6 -6 -9l-40 -20q-14 -7 -16 -7q-5 0 -8 5q-27 39 -57 39q-24 0 -40.5 -16t-16.5 -40v-94q0 -24 16.5 -40t40.5 -16q29 0 57 40q3 5 8 5q2 0 14 -6l42 -21 q6 -3 6 -9z" />
<glyph unicode="&#xaa;" horiz-adv-x="326" d="M302 321q2 -7 -5 -7h-81q-1 0 -5 6l-9 39q-1 4 -7 4h-67q-5 0 -6 -4l-10 -39q-2 -6 -5 -6h-80q-9 0 -5 7l106 315q1 4 5 4h59q3 0 4 -4zM188 430l-10 37q-10 40 -13 71h-4q-2 -22 -15 -71l-10 -37q0 -5 5 -5h42q5 0 5 5z" />
<glyph unicode="&#xab;" horiz-adv-x="574" d="M284 92q0 -11 -8 -11q-4 0 -8 3l-216 153q-4 4 -4 8v71q0 4 4 8l216 154q4 3 8 3q8 0 8 -11v-89q0 -4 -4 -8l-118 -84q-5 -3 -5 -8q0 -3 5 -8l118 -85q4 -4 4 -8v-88zM515 92q0 -11 -8 -11q-3 0 -8 3l-217 153q-4 4 -4 8v71q0 4 4 8l217 154q5 3 8 3q8 0 8 -11v-89 q0 -4 -4 -8l-118 -84q-5 -3 -5 -8q0 -3 5 -8l118 -85q4 -4 4 -8v-88z" />
<glyph unicode="&#xac;" d="M468 125q0 -10 -10 -10h-75q-10 0 -10 10v151q0 10 -10 10h-314q-10 0 -10 10v66q0 10 10 10h409q10 0 10 -10v-237z" />
<glyph unicode="&#xad;" horiz-adv-x="278" d="M239 182q0 -10 -10 -10h-180q-10 0 -10 10v94q0 10 10 10h180q10 0 10 -10v-94z" />
<glyph unicode="&#xae;" horiz-adv-x="460" d="M412 440q0 -76 -49 -123t-131 -47h-4q-82 0 -131 47t-49 123v20q0 76 49 123t131 47h4q82 0 131 -47t49 -123v-20zM382 440v20q0 63 -41 101.5t-109 38.5h-4q-68 0 -109 -38.5t-41 -101.5v-20q0 -63 41 -101.5t109 -38.5h4q68 0 109 38.5t41 101.5zM304 481 q0 -25 -26 -45q-4 -3 -4 -7q0 -3 5 -13l17 -34q6 -10 6 -14q0 -8 -11 -8h-16q-6 0 -9 6l-23 53q-3 6 -9 6h-25q-10 0 -10 -10v-45q0 -10 -10 -10h-11q-10 0 -10 10v168q0 10 10 10h63q29 0 46 -17t17 -46v-4zM272 485v3q0 14 -9 23t-22 9h-32q-10 0 -10 -10v-47 q0 -10 10 -10h32q13 0 22 9t9 23z" />
<glyph unicode="&#xaf;" horiz-adv-x="500" d="M376 598q0 -10 -10 -10h-228q-10 0 -10 10v85q0 10 10 10h228q10 0 10 -10v-85z" />
<glyph unicode="&#xb0;" horiz-adv-x="293" d="M247 439q0 -42 -27.5 -68.5t-73.5 -26.5q-45 0 -72.5 26.5t-27.5 68.5v93q0 43 27.5 70.5t72.5 27.5q46 0 73.5 -26.5t27.5 -68.5v-96zM166 439v96q0 7 -6 13t-14 6q-19 0 -19 -19v-96q0 -19 19 -19q8 0 14 6t6 13z" />
<glyph unicode="&#xb1;" d="M458 289q0 -10 -10 -10h-142q-10 0 -10 -10v-124q0 -10 -10 -10h-66q-10 0 -10 10v124q0 10 -10 10h-141q-10 0 -10 10v66q0 10 10 10h141q10 0 10 10v127q0 10 10 10h66q10 0 10 -10v-127q0 -10 10 -10h142q10 0 10 -10v-66zM458 10q0 -10 -10 -10h-389q-10 0 -10 10v66 q0 10 10 10h389q10 0 10 -10v-66z" />
<glyph unicode="&#xb2;" horiz-adv-x="335" d="M304 474q0 -21 -9 -38t-18 -26t-30.5 -18t-30.5 -11t-33 -8q-18 -5 -26 -7.5t-16 -9t-8 -14.5v-6q0 -6 8 -6h152q6 0 6 -6v-67q0 -6 -6 -6h-248q-7 0 -7 6v52q0 36 9.5 61t29 38.5t34 19.5t39.5 12q20 4 26.5 6t18.5 6.5t16 11t4 15.5q0 37 -41 37h-24q-25 0 -48 -37 q-5 -8 -10 -4l-67 30q-5 4 -2 11q21 39 50 59t75 20h26q59 0 94.5 -33.5t35.5 -87.5z" />
<glyph unicode="&#xb3;" horiz-adv-x="335" d="M306 335q0 -57 -36 -90.5t-98 -33.5h-18q-46 0 -75.5 18t-50.5 59q-5 8 2 11l66 31q6 3 10 -4q22 -37 52 -37h14q20 0 32 11.5t12 29.5v21q0 17 -11.5 27.5t-32.5 10.5h-62q-7 0 -7 7v67q0 6 7 6h62q21 0 32.5 10.5t11.5 27.5v11q0 17 -12 28t-32 11h-14q-31 0 -52 -36 q-4 -8 -11 -4l-65 30q-7 4 -2 11q22 41 51 59.5t75 18.5h18q61 0 97.5 -34t36.5 -90v-11q0 -41 -36 -65q-5 -5 0 -8q36 -24 36 -75v-18z" />
<glyph unicode="&#xb4;" horiz-adv-x="500" d="M434 716q0 -5 -7 -12l-142 -140q-9 -7 -16 -7h-68q-10 0 -10 8q0 3 6 13l90 138q5 8 14 8h122q11 0 11 -8z" />
<glyph unicode="&#xb5;" horiz-adv-x="511" d="M442 10q0 -10 -10 -10h-85q-10 0 -10 9q0 11 -8 11q-1 0 -7 -2q-34 -18 -66 -18q-31 0 -61 8q-10 3 -10 -8v-150q0 -10 -10 -10h-95q-10 0 -10 10v598q0 10 10 10h95q10 0 10 -10v-271q0 -31 20.5 -51.5t50.5 -20.5t51 21t21 51v271q0 10 10 10h94q10 0 10 -10v-438z" />
<glyph unicode="&#xb6;" horiz-adv-x="637" d="M570 -215q0 -10 -10 -10h-95q-10 0 -10 10v730q0 10 -10 10h-67q-10 0 -10 -10v-730q0 -10 -10 -10h-95q-10 0 -10 10v291q0 10 -10 10h-4q-84 0 -135 50t-51 126v182q0 84 50.5 135t135.5 51h321q10 0 10 -10v-835z" />
<glyph unicode="&#xb7;" d="M321 243q0 -27 -20 -47t-47 -20t-47.5 20t-20.5 47t20 47t47 20t47.5 -20t20.5 -47z" />
<glyph unicode="&#xb8;" horiz-adv-x="500" d="M325 -112q0 -46 -32 -74.5t-79 -28.5h-59q-10 0 -10 10v66q0 10 10 10h59q7 0 12.5 5t5.5 12v8q0 7 -5.5 12.5t-12.5 5.5h-40q-10 0 -10 8q0 4 8 20l51 107q3 6 9 6l20 -4l44 -10q9 -1 9 -8q0 -3 -5 -13l-16 -32q-5 -12 -5 -13q0 -4 4 -7q42 -23 42 -72v-8z" />
<glyph unicode="&#xb9;" horiz-adv-x="335" d="M302 257q0 -6 -6 -6h-234q-6 0 -6 6v67q0 6 6 6h64q8 0 8 7v104q0 8 -8 3l-22 -18q-4 -2 -9 1l-48 44q-5 5 0 9l120 112q6 3 9 3h42q6 0 6 -7v-251q0 -7 9 -7h63q6 0 6 -6v-67z" />
<glyph unicode="&#xba;" horiz-adv-x="319" d="M289 395q0 -44 -31 -71t-80 -27h-33q-50 0 -81 27t-31 71v147q0 44 31 71t81 27h33q50 0 80.5 -27t30.5 -71v-147zM203 396v146q0 21 -25 21h-33q-11 0 -19 -6.5t-8 -14.5v-146q0 -21 27 -21h33q25 0 25 21z" />
<glyph unicode="&#xbb;" horiz-adv-x="574" d="M295 245q0 -4 -4 -8l-216 -153q-5 -3 -8 -3q-8 0 -8 11v88q0 4 4 8l117 85q5 5 5 8t-5 8l-117 84q-4 4 -4 8v89q0 11 8 11q3 0 8 -3l216 -154q4 -4 4 -8v-71zM526 245q0 -4 -4 -8l-216 -153q-4 -3 -8 -3q-8 0 -8 11v88q0 4 4 8l118 85q5 5 5 8q0 5 -5 8l-118 84 q-4 4 -4 8v89q0 11 8 11q4 0 8 -3l216 -154q4 -4 4 -8v-71z" />
<glyph unicode="&#xbc;" horiz-adv-x="956" d="M824 20q0 -6 -6 -6h-45q-6 0 -6 -7v-75q0 -6 -7 -6h-77q-6 0 -6 6v75q0 7 -7 7h-162q-6 0 -6 6v62l180 250q3 3 9 3h69q7 0 7 -6v-229q0 -7 6 -7h45q6 0 6 -6v-67zM644 616l-261 -610q-3 -6 -9 -6h-54q-15 0 -9 14l261 610q3 6 9 6h54q15 0 9 -14zM362 257q0 -6 -6 -6 h-234q-6 0 -6 6v67q0 6 6 6h64q7 0 7 7v104q0 8 -7 3l-22 -18q-4 -2 -9 1l-48 44q-6 5 0 9l119 112q6 3 9 3h43q6 0 6 -7v-251q0 -7 8 -7h64q6 0 6 -6v-67zM677 98v119q0 2 -2 2t-3 -1l-72 -118q-4 -8 4 -8h66q7 0 7 6z" />
<glyph unicode="&#xbd;" horiz-adv-x="956" d="M823 223q0 -21 -9 -38t-18 -26t-30.5 -18t-30.5 -11t-33 -8q-18 -5 -26 -7.5t-16 -9t-8 -14.5v-6q0 -6 7 -6h152q7 0 7 -6v-67q0 -6 -7 -6h-247q-7 0 -7 6v52q0 36 9.5 61t29 38.5t34 19.5t39.5 12q20 4 26.5 6t18.5 6.5t16 11t4 15.5q0 37 -41 37h-24q-26 0 -49 -37 q-3 -9 -9 -4l-67 30q-5 4 -2 11q21 39 50 59t75 20h26q59 0 94.5 -33.5t35.5 -87.5zM644 616l-261 -610q-3 -6 -9 -6h-54q-15 0 -9 14l261 610q3 6 9 6h54q15 0 9 -14zM362 257q0 -6 -6 -6h-234q-6 0 -6 6v67q0 6 6 6h64q7 0 7 7v104q0 8 -7 3l-22 -18q-4 -2 -9 1l-48 44 q-6 5 0 9l119 112q6 3 9 3h43q6 0 6 -7v-251q0 -7 8 -7h64q6 0 6 -6v-67z" />
<glyph unicode="&#xbe;" horiz-adv-x="956" d="M824 20q0 -6 -6 -6h-45q-6 0 -6 -7v-75q0 -6 -7 -6h-77q-6 0 -6 6v75q0 7 -7 7h-162q-6 0 -6 6v62l180 250q3 3 9 3h69q7 0 7 -6v-229q0 -7 6 -7h45q6 0 6 -6v-67zM644 616l-261 -610q-3 -6 -9 -6h-54q-15 0 -9 14l261 610q3 6 9 6h54q15 0 9 -14zM372 335 q0 -57 -36 -90.5t-97 -33.5h-19q-46 0 -75.5 18t-50.5 59q-5 8 2 11l66 31q6 3 10 -4q22 -37 52 -37h15q19 0 31 11.5t12 29.5v21q0 17 -11.5 27.5t-31.5 10.5h-63q-7 0 -7 7v67q0 6 7 6h63q20 0 31.5 10.5t11.5 27.5v11q0 17 -12 28t-31 11h-15q-31 0 -52 -36q-4 -8 -11 -4 l-65 30q-7 4 -2 11q22 41 51 59.5t75 18.5h19q61 0 97 -34t36 -90v-11q0 -42 -36 -65q-5 -5 0 -8q36 -24 36 -75v-18zM677 98v119q0 2 -2 2t-3 -1l-72 -118q-4 -8 4 -8h66q7 0 7 6z" />
<glyph unicode="&#xbf;" d="M349 445q0 -27 -20 -47t-47 -20t-47 20t-20 47t20 47t47 20t47 -20t20 -47zM456 -20q0 -5 -19 -37q-52 -81 -158 -81h-36q-84 0 -135 49t-51 128q0 34 9 61t18 42t31.5 30.5t32 20.5t35.5 17q20 10 30 16t19 19t9 31q0 14 -3 29.5t-3 16.5q0 8 10 8h95q8 0 10 -8 q6 -38 6 -60q0 -77 -68 -119q-10 -7 -52 -28q-21 -11 -32.5 -18.5t-21.5 -22.5t-10 -35q0 -30 20.5 -51t50.5 -21h36q46 0 71 59q3 7 8 7q2 0 12 -5l80 -41q6 -3 6 -7z" />
<glyph unicode="&#xc0;" horiz-adv-x="470" d="M468 8q0 -8 -11 -8h-101q-9 0 -10 7l-30 105q-1 6 -10 6h-143q-9 0 -10 -6l-30 -105q-1 -7 -10 -7h-100q-11 0 -11 8q0 2 1 4.5t2 6.5t2 7l182 597q1 7 10 7h72q9 0 10 -7l182 -597q5 -15 5 -18zM282 232q0 4 -5 19l-29 117q-1 4 -5.5 27.5t-5.5 27.5h-3q-1 -4 -6 -27.5 t-6 -27.5l-30 -116q-5 -18 -5 -20q0 -9 11 -9h73q11 0 11 9zM295 705q4 -6 2 -10t-8 -4h-59q-13 0 -21 7l-133 109q-5 4 -3.5 10t8.5 6h113q10 0 18 -10z" />
<glyph unicode="&#xc1;" horiz-adv-x="470" d="M468 8q0 -8 -11 -8h-101q-9 0 -10 7l-30 105q-1 6 -10 6h-143q-9 0 -10 -6l-30 -105q-1 -7 -10 -7h-100q-11 0 -11 8q0 2 1 4.5t2 6.5t2 7l182 597q1 7 10 7h72q9 0 10 -7l182 -597q5 -15 5 -18zM282 232q0 4 -5 19l-29 117q-1 4 -5.5 27.5t-5.5 27.5h-3q-1 -4 -6 -27.5 t-6 -27.5l-30 -116q-5 -18 -5 -20q0 -9 11 -9h73q11 0 11 9zM395 807l-133 -109q-8 -7 -21 -7h-59q-6 0 -8 4t2 10l83 108q8 10 18 10h113q7 0 8.5 -6t-3.5 -10z" />
<glyph unicode="&#xc2;" horiz-adv-x="470" d="M468 8q0 -8 -11 -8h-101q-9 0 -10 7l-30 105q-1 6 -10 6h-143q-9 0 -10 -6l-30 -105q-1 -7 -10 -7h-100q-11 0 -11 8q0 2 1 4.5t2 6.5t2 7l182 597q1 7 10 7h72q9 0 10 -7l182 -597q5 -15 5 -18zM282 232q0 4 -5 19l-29 117q-1 4 -5.5 27.5t-5.5 27.5h-3q-1 -4 -6 -27.5 t-6 -27.5l-30 -116q-5 -18 -5 -20q0 -9 11 -9h73q11 0 11 9zM357 698q4 -5 2 -9t-8 -4h-66q-8 0 -14 9l-30 50q-5 9 -11 0l-30 -50q-6 -9 -14 -9h-66q-6 0 -8 4t2 9l92 127q4 6 12 6h35q7 0 12 -6z" />
<glyph unicode="&#xc3;" horiz-adv-x="470" d="M468 8q0 -8 -11 -8h-101q-9 0 -10 7l-30 105q-1 6 -10 6h-143q-9 0 -10 -6l-30 -105q-1 -7 -10 -7h-100q-11 0 -11 8q0 2 1 4.5t2 6.5t2 7l182 597q1 7 10 7h72q9 0 10 -7l182 -597q5 -15 5 -18zM282 232q0 4 -5 19l-29 117q-1 4 -5.5 27.5t-5.5 27.5h-3q-1 -4 -6 -27.5 t-6 -27.5l-30 -116q-5 -18 -5 -20q0 -9 11 -9h73q11 0 11 9zM378 768q-37 -66 -99 -66q-18 0 -48 15.5t-43 15.5q-29 0 -46 -27q-6 -10 -15 -3l-31 22q-7 6 -3 13q37 66 96 66q21 0 50 -15t41 -15q25 0 48 28q8 9 14 4l33 -24q8 -6 3 -14z" />
<glyph unicode="&#xc4;" horiz-adv-x="470" d="M468 8q0 -8 -11 -8h-101q-9 0 -10 7l-30 105q-1 6 -10 6h-143q-9 0 -10 -6l-30 -105q-1 -7 -10 -7h-100q-11 0 -11 8q0 2 1 4.5t2 6.5t2 7l182 597q1 7 10 7h72q9 0 10 -7l182 -597q5 -15 5 -18zM282 232q0 4 -5 19l-29 117q-1 4 -5.5 27.5t-5.5 27.5h-3q-1 -4 -6 -27.5 t-6 -27.5l-30 -116q-5 -18 -5 -20q0 -9 11 -9h73q11 0 11 9zM370 755q0 -23 -16 -39t-39 -16t-39.5 16t-16.5 39t16.5 39t39.5 16t39 -16t16 -39zM211 755q0 -23 -16 -39t-39 -16t-39.5 16t-16.5 39t16.5 39t39.5 16t39 -16t16 -39z" />
<glyph unicode="&#xc5;" horiz-adv-x="470" d="M468 8q0 -8 -11 -8h-101q-9 0 -10 7l-30 105q-1 6 -10 6h-143q-9 0 -10 -6l-30 -105q-1 -7 -10 -7h-100q-11 0 -11 8q0 2 1 4.5t2 6.5t2 7l161 527q3 11 3 16q0 7 -7 13q-29 26 -29 70v29q0 42 27.5 68.5t72.5 26.5t72.5 -26.5t27.5 -68.5v-29q0 -44 -30 -71 q-7 -6 -7 -11t4 -17l161 -527q5 -15 5 -18zM264 652v29q0 11 -9 20t-20 9t-20 -9t-9 -20v-29q0 -11 9 -19.5t20 -8.5t20 8.5t9 19.5zM282 232q0 4 -5 19l-29 117q-1 4 -5.5 27.5t-5.5 27.5h-3q-1 -4 -6 -27.5t-6 -27.5l-30 -116q-5 -18 -5 -20q0 -9 11 -9h73q11 0 11 9z" />
<glyph unicode="&#xc6;" horiz-adv-x="706" d="M658 10q0 -10 -10 -10h-353q-10 0 -10 10v118q0 10 -10 10h-133q-7 0 -10 -4l-72 -129q-3 -5 -9 -5h-102q-11 0 -11 8q0 4 11 22l351 595q3 5 9 5h339q10 0 10 -10v-85q0 -10 -10 -10h-238q-10 0 -10 -10v-133q0 -10 10 -10h195q10 0 10 -10v-85q0 -10 -10 -10h-195 q-10 0 -10 -10v-142q0 -10 10 -10h238q10 0 10 -10v-85zM291 416l-4 1q-12 -31 -23 -51l-55 -101q-6 -12 -6 -14q0 -8 11 -8h61q10 0 10 10v40q0 51 6 123z" />
<glyph unicode="&#xc7;" horiz-adv-x="504" d="M475 108q0 -5 -19 -37q-48 -76 -143 -81q-16 -1 -16 -15q0 -4 4 -7q42 -23 42 -72v-8q0 -46 -32 -74.5t-79 -28.5h-59q-10 0 -10 10v66q0 10 10 10h59q7 0 12.5 5t5.5 12v8q0 7 -5.5 12.5t-12.5 5.5h-40q-10 0 -10 8q0 4 8 20l15 32q4 8 4 12q0 7 -10 9 q-63 13 -99.5 59.5t-36.5 112.5v296q0 79 50.5 128t135.5 49h49q106 0 158 -81q19 -32 19 -37q0 -4 -6 -7l-80 -41q-10 -5 -12 -5q-5 0 -8 7q-25 59 -71 59h-49q-29 0 -50.5 -21.5t-21.5 -50.5v-296q0 -29 21.5 -50.5t50.5 -21.5h49q46 0 71 59q3 7 8 7q2 0 12 -5l80 -41 q6 -3 6 -7z" />
<glyph unicode="&#xc8;" horiz-adv-x="498" d="M450 10q0 -10 -10 -10h-353q-10 0 -10 10v610q0 10 10 10h353q10 0 10 -10v-85q0 -10 -10 -10h-238q-10 0 -10 -10v-133q0 -10 10 -10h195q10 0 10 -10v-85q0 -10 -10 -10h-195q-10 0 -10 -10v-142q0 -10 10 -10h238q10 0 10 -10v-85zM324 705q4 -6 2 -10t-8 -4h-59 q-13 0 -21 7l-133 109q-5 4 -3.5 10t8.5 6h113q10 0 18 -10z" />
<glyph unicode="&#xc9;" horiz-adv-x="498" d="M450 10q0 -10 -10 -10h-353q-10 0 -10 10v610q0 10 10 10h353q10 0 10 -10v-85q0 -10 -10 -10h-238q-10 0 -10 -10v-133q0 -10 10 -10h195q10 0 10 -10v-85q0 -10 -10 -10h-195q-10 0 -10 -10v-142q0 -10 10 -10h238q10 0 10 -10v-85zM424 807l-133 -109q-8 -7 -21 -7 h-59q-6 0 -8 4t2 10l83 108q8 10 18 10h113q7 0 8.5 -6t-3.5 -10z" />
<glyph unicode="&#xca;" horiz-adv-x="498" d="M450 10q0 -10 -10 -10h-353q-10 0 -10 10v610q0 10 10 10h353q10 0 10 -10v-85q0 -10 -10 -10h-238q-10 0 -10 -10v-133q0 -10 10 -10h195q10 0 10 -10v-85q0 -10 -10 -10h-195q-10 0 -10 -10v-142q0 -10 10 -10h238q10 0 10 -10v-85zM386 698q4 -5 2 -9t-8 -4h-66 q-8 0 -14 9l-30 50q-6 9 -11 0l-30 -50q-6 -9 -14 -9h-66q-6 0 -8 4t2 9l92 127q5 6 12 6h35q8 0 12 -6z" />
<glyph unicode="&#xcb;" horiz-adv-x="498" d="M450 10q0 -10 -10 -10h-353q-10 0 -10 10v610q0 10 10 10h353q10 0 10 -10v-85q0 -10 -10 -10h-238q-10 0 -10 -10v-133q0 -10 10 -10h195q10 0 10 -10v-85q0 -10 -10 -10h-195q-10 0 -10 -10v-142q0 -10 10 -10h238q10 0 10 -10v-85zM400 755q0 -23 -16 -39t-39 -16 t-39.5 16t-16.5 39t16.5 39t39.5 16t39 -16t16 -39zM241 755q0 -23 -16 -39t-39 -16t-39.5 16t-16.5 39t16.5 39t39.5 16t39 -16t16 -39z" />
<glyph unicode="&#xcc;" horiz-adv-x="269" d="M192 10q0 -10 -10 -10h-95q-10 0 -10 10v610q0 10 10 10h95q10 0 10 -10v-610zM194 705q4 -6 2 -10t-8 -4h-59q-13 0 -21 7l-133 109q-5 4 -3.5 10t8.5 6h113q10 0 18 -10z" />
<glyph unicode="&#xcd;" horiz-adv-x="269" d="M192 10q0 -10 -10 -10h-95q-10 0 -10 10v610q0 10 10 10h95q10 0 10 -10v-610zM294 807l-133 -109q-8 -7 -21 -7h-59q-6 0 -8 4t2 10l83 108q8 10 18 10h113q7 0 8.5 -6t-3.5 -10z" />
<glyph unicode="&#xce;" horiz-adv-x="269" d="M192 10q0 -10 -10 -10h-95q-10 0 -10 10v610q0 10 10 10h95q10 0 10 -10v-610zM256 698q4 -5 2 -9t-8 -4h-66q-8 0 -14 9l-30 50q-6 9 -11 0l-30 -50q-6 -9 -14 -9h-66q-6 0 -8 4t2 9l92 127q5 6 12 6h35q8 0 12 -6z" />
<glyph unicode="&#xcf;" horiz-adv-x="269" d="M192 10q0 -10 -10 -10h-95q-10 0 -10 10v610q0 10 10 10h95q10 0 10 -10v-610zM270 755q0 -23 -16 -39t-39 -16t-39.5 16t-16.5 39t16.5 39t39.5 16t39 -16t16 -39zM111 755q0 -23 -16 -39t-39 -16t-39.5 16t-16.5 39t16.5 39t39.5 16t39 -16t16 -39z" />
<glyph unicode="&#xd0;" horiz-adv-x="561" d="M498 186q0 -86 -50 -136t-136 -50h-205q-10 0 -10 10v238q0 10 -11 10h-31q-10 0 -10 10v94q0 10 10 10h31q11 0 11 11v237q0 10 10 10h205q85 0 135.5 -50.5t50.5 -135.5v-258zM384 177v276q0 29 -21.5 50.5t-50.5 21.5h-90q-10 0 -10 -10v-133q0 -10 11 -10h76 q10 0 10 -10v-94q0 -10 -10 -10h-76q-11 0 -11 -11v-132q0 -10 10 -10h90q30 0 51 21t21 51z" />
<glyph unicode="&#xd1;" horiz-adv-x="570" d="M492 10q0 -10 -10 -10h-83q-6 0 -9 5l-179 326q-5 10 -21 51l-4 -1q6 -72 6 -247v-124q0 -10 -10 -10h-95q-10 0 -10 10v610q0 10 10 10h84q6 0 9 -5l179 -328q5 -10 21 -51l4 1q-6 72 -6 247v126q0 10 10 10h94q10 0 10 -10v-610zM425 768q-37 -66 -99 -66 q-18 0 -48 15.5t-43 15.5q-29 0 -46 -27q-6 -10 -15 -3l-31 22q-7 6 -3 13q37 66 96 66q22 0 50 -15t41 -15q25 0 48 28q8 9 14 4l33 -24q8 -6 3 -14z" />
<glyph unicode="&#xd2;" horiz-adv-x="547" d="M484 167q0 -79 -51 -128t-135 -49h-49q-85 0 -135.5 49t-50.5 128v296q0 79 50.5 128t135.5 49h49q84 0 135 -49t51 -128v-296zM369 167v296q0 30 -20.5 51t-50.5 21h-49q-29 0 -50.5 -21.5t-21.5 -50.5v-296q0 -29 21.5 -50.5t50.5 -21.5h49q30 0 50.5 21t20.5 51z M333 705q4 -6 2 -10t-8 -4h-59q-13 0 -21 7l-133 109q-5 4 -3.5 10t8.5 6h113q10 0 18 -10z" />
<glyph unicode="&#xd3;" horiz-adv-x="547" d="M484 167q0 -79 -51 -128t-135 -49h-49q-85 0 -135.5 49t-50.5 128v296q0 79 50.5 128t135.5 49h49q84 0 135 -49t51 -128v-296zM369 167v296q0 30 -20.5 51t-50.5 21h-49q-29 0 -50.5 -21.5t-21.5 -50.5v-296q0 -29 21.5 -50.5t50.5 -21.5h49q30 0 50.5 21t20.5 51z M433 807l-133 -109q-8 -7 -21 -7h-59q-6 0 -8 4t2 10l83 108q8 10 18 10h113q7 0 8.5 -6t-3.5 -10z" />
<glyph unicode="&#xd4;" horiz-adv-x="547" d="M484 167q0 -79 -51 -128t-135 -49h-49q-85 0 -135.5 49t-50.5 128v296q0 79 50.5 128t135.5 49h49q84 0 135 -49t51 -128v-296zM369 167v296q0 30 -20.5 51t-50.5 21h-49q-29 0 -50.5 -21.5t-21.5 -50.5v-296q0 -29 21.5 -50.5t50.5 -21.5h49q30 0 50.5 21t20.5 51z M395 698q4 -5 2 -9t-8 -4h-66q-8 0 -14 9l-30 50q-5 9 -11 0l-30 -50q-6 -9 -14 -9h-66q-6 0 -8 4t2 9l92 127q4 6 12 6h35q7 0 12 -6z" />
<glyph unicode="&#xd5;" horiz-adv-x="547" d="M484 167q0 -79 -51 -128t-135 -49h-49q-85 0 -135.5 49t-50.5 128v296q0 79 50.5 128t135.5 49h49q84 0 135 -49t51 -128v-296zM369 167v296q0 30 -20.5 51t-50.5 21h-49q-29 0 -50.5 -21.5t-21.5 -50.5v-296q0 -29 21.5 -50.5t50.5 -21.5h49q30 0 50.5 21t20.5 51z M416 768q-37 -66 -99 -66q-18 0 -48 15.5t-43 15.5q-29 0 -46 -27q-6 -10 -15 -3l-31 22q-7 6 -3 13q37 66 96 66q21 0 50 -15t41 -15q25 0 48 28q8 9 14 4l33 -24q8 -6 3 -14z" />
<glyph unicode="&#xd6;" horiz-adv-x="547" d="M484 167q0 -79 -51 -128t-135 -49h-49q-85 0 -135.5 49t-50.5 128v296q0 79 50.5 128t135.5 49h49q84 0 135 -49t51 -128v-296zM369 167v296q0 30 -20.5 51t-50.5 21h-49q-29 0 -50.5 -21.5t-21.5 -50.5v-296q0 -29 21.5 -50.5t50.5 -21.5h49q30 0 50.5 21t20.5 51z M409 755q0 -23 -16 -39t-39 -16t-39.5 16t-16.5 39t16.5 39t39.5 16t39 -16t16 -39zM250 755q0 -23 -16 -39t-39 -16t-39.5 16t-16.5 39t16.5 39t39.5 16t39 -16t16 -39z" />
<glyph unicode="&#xd7;" d="M443 101l-47 -46q-7 -7 -14 0l-121 121q-7 7 -14 0l-121 -122q-8 -8 -15 0l-46 47q-7 7 0 14l121 121q8 8 0 15l-121 121q-7 7 0 14l46 47q7 7 15 0l121 -122q7 -7 14 0l121 121q7 7 14 0l47 -46q7 -8 0 -15l-121 -120q-8 -7 0 -15l121 -120q7 -8 0 -15z" />
<glyph unicode="&#xd8;" horiz-adv-x="547" d="M484 167q0 -79 -51 -128t-135 -49h-49q-85 0 -135.5 49t-50.5 128v296q0 79 50.5 128t135.5 49h49q84 0 135 -49t51 -128v-296zM326 521q0 8 -7 10q-14 4 -21 4h-49q-29 0 -50.5 -21.5t-21.5 -50.5v-212q0 -9 7 -9q4 0 7 5l133 267q2 6 2 7zM369 167v261q0 8 -6 8 q-5 0 -7 -5l-149 -299q-4 -10 -4 -13q0 -7 6 -11q19 -13 40 -13h49q30 0 50.5 21t20.5 51z" />
<glyph unicode="&#xd9;" horiz-adv-x="547" d="M484 167q0 -79 -51 -128t-135 -49h-49q-85 0 -135.5 49t-50.5 128v453q0 10 10 10h94q10 0 10 -10v-453q0 -29 21.5 -50.5t50.5 -21.5h49q30 0 50.5 21t20.5 51v453q0 10 10 10h95q10 0 10 -10v-453zM333 705q4 -6 2 -10t-8 -4h-59q-13 0 -21 7l-133 109q-5 4 -3.5 10 t8.5 6h113q10 0 18 -10z" />
<glyph unicode="&#xda;" horiz-adv-x="547" d="M484 167q0 -79 -51 -128t-135 -49h-49q-85 0 -135.5 49t-50.5 128v453q0 10 10 10h94q10 0 10 -10v-453q0 -29 21.5 -50.5t50.5 -21.5h49q30 0 50.5 21t20.5 51v453q0 10 10 10h95q10 0 10 -10v-453zM433 807l-133 -109q-8 -7 -21 -7h-59q-6 0 -8 4t2 10l83 108 q8 10 18 10h113q7 0 8.5 -6t-3.5 -10z" />
<glyph unicode="&#xdb;" horiz-adv-x="547" d="M484 167q0 -79 -51 -128t-135 -49h-49q-85 0 -135.5 49t-50.5 128v453q0 10 10 10h94q10 0 10 -10v-453q0 -29 21.5 -50.5t50.5 -21.5h49q30 0 50.5 21t20.5 51v453q0 10 10 10h95q10 0 10 -10v-453zM395 698q4 -5 2 -9t-8 -4h-66q-8 0 -14 9l-30 50q-5 9 -11 0l-30 -50 q-6 -9 -14 -9h-66q-6 0 -8 4t2 9l92 127q4 6 12 6h35q7 0 12 -6z" />
<glyph unicode="&#xdc;" horiz-adv-x="547" d="M484 167q0 -79 -51 -128t-135 -49h-49q-85 0 -135.5 49t-50.5 128v453q0 10 10 10h94q10 0 10 -10v-453q0 -29 21.5 -50.5t50.5 -21.5h49q30 0 50.5 21t20.5 51v453q0 10 10 10h95q10 0 10 -10v-453zM409 755q0 -23 -16 -39t-39 -16t-39.5 16t-16.5 39t16.5 39t39.5 16 t39 -16t16 -39zM250 755q0 -23 -16 -39t-39 -16t-39.5 16t-16.5 39t16.5 39t39.5 16t39 -16t16 -39z" />
<glyph unicode="&#xdd;" horiz-adv-x="470" d="M469 622q0 -2 -7 -16l-163 -305q-7 -14 -7 -28v-263q0 -10 -10 -10h-95q-10 0 -10 10v264q0 13 -7 27l-163 305q-7 12 -7 16q0 8 11 8h111q5 0 9 -6l95 -196q3 -8 9 -8t9 8l95 196q4 6 9 6h110q11 0 11 -8zM430 807l-133 -109q-8 -7 -21 -7h-59q-6 0 -8 4t2 10l83 108 q8 10 18 10h113q7 0 8.5 -6t-3.5 -10z" />
<glyph unicode="&#xde;" horiz-adv-x="503" d="M478 324q0 -76 -51 -126.5t-135 -50.5h-90q-10 0 -10 -10v-127q0 -10 -10 -10h-95q-10 0 -10 10v610q0 10 10 10h95q10 0 10 -10v-99q0 -11 11 -11h89q85 0 135.5 -51t50.5 -135zM364 324v9q0 29 -21.5 50.5t-50.5 21.5h-90q-10 0 -10 -10v-133q0 -10 10 -10h90 q29 0 50.5 21.5t21.5 50.5z" />
<glyph unicode="&#xdf;" horiz-adv-x="871" d="M396 140q0 -70 -43.5 -110.5t-121.5 -40.5h-31q-106 0 -152 83q-6 10 2 15l70 46q11 7 14 -3q25 -43 65 -43h31q23 0 38 14.5t15 36.5q0 7 -1.5 12.5t-5 10.5t-7 9t-10.5 8l-11 6q-5 3 -15 7l-15 6l-18 7l-17 6q-68 25 -100.5 57t-32.5 94q0 69 44.5 110t120.5 41h16 q105 0 153 -82q7 -11 -2 -16l-70 -45q-10 -8 -15 2q-23 43 -65 43h-17q-23 0 -37 -13.5t-14 -36.5q0 -16 14.5 -29t31.5 -19l43 -17l9 -3q69 -24 101.5 -58t32.5 -98zM824 140q0 -70 -43.5 -110.5t-121.5 -40.5h-31q-106 0 -152 83q-6 10 2 15l70 46q11 7 14 -3 q25 -43 65 -43h31q23 0 38 14.5t15 36.5q0 7 -1.5 12.5t-5 10.5t-7 9t-10.5 8l-11 6q-5 3 -15 7l-15 6l-18 7l-17 6q-68 25 -100.5 57t-32.5 94q0 69 44.5 110t120.5 41h16q105 0 153 -82q7 -11 -2 -16l-70 -45q-10 -8 -15 2q-23 43 -65 43h-17q-23 0 -37 -13.5t-14 -36.5 q0 -16 14.5 -29t31.5 -19l43 -17l9 -3q69 -24 101.5 -58t32.5 -98z" />
<glyph unicode="&#xe0;" horiz-adv-x="444" d="M429 10q5 -10 -7 -10h-103q-5 0 -7 6l-24 72q-2 5 -10 5h-113q-8 0 -9 -5l-25 -72q-1 -6 -8 -6h-101q-11 0 -8 10l164 486q2 5 8 5h73q5 0 7 -5zM263 172l-25 99q-4 16 -7.5 36t-5 32t-1.5 13h-2q0 -27 -15 -81l-27 -99q-2 -8 8 -8h67q10 0 8 8zM278 565q0 -8 -10 -8h-68 q-7 0 -16 7l-142 140q-7 7 -7 12q0 8 11 8h122q9 0 14 -8l90 -138q6 -10 6 -13z" />
<glyph unicode="&#xe1;" horiz-adv-x="444" d="M412 716q0 -5 -7 -12l-142 -140q-9 -7 -16 -7h-68q-10 0 -10 8q0 3 6 13l90 138q5 8 14 8h122q11 0 11 -8zM429 10q5 -10 -7 -10h-103q-5 0 -7 6l-24 72q-2 5 -10 5h-113q-8 0 -9 -5l-25 -72q-1 -6 -8 -6h-101q-11 0 -8 10l164 486q2 5 8 5h73q5 0 7 -5zM263 172l-25 99 q-4 16 -7.5 36t-5 32t-1.5 13h-2q0 -27 -15 -81l-27 -99q-2 -8 8 -8h67q10 0 8 8z" />
<glyph unicode="&#xe2;" horiz-adv-x="444" d="M363 565q0 -8 -11 -8h-81q-5 0 -8 5l-33 51q-3 6 -8 6q-4 0 -7 -6l-32 -51q-3 -5 -8 -5h-81q-11 0 -11 8q0 3 3 8l104 147q4 4 8 4h49q4 0 8 -4l105 -147q3 -5 3 -8zM429 10q5 -10 -7 -10h-103q-5 0 -7 6l-24 72q-2 5 -10 5h-113q-8 0 -9 -5l-25 -72q-1 -6 -8 -6h-101 q-11 0 -8 10l164 486q2 5 8 5h73q5 0 7 -5zM263 172l-25 99q-4 16 -7.5 36t-5 32t-1.5 13h-2q0 -27 -15 -81l-27 -99q-2 -8 8 -8h67q10 0 8 8z" />
<glyph unicode="&#xe3;" horiz-adv-x="444" d="M378 657q0 -6 -18 -34q-38 -55 -84 -55q-22 0 -69 29l-18 11q-16 10 -26 10q-20 0 -41 -31q-3 -6 -8 -6q-3 0 -14 9l-34 25q-4 3 -4 8q0 6 14 28q37 58 87 58q31 0 68 -26l17 -12q15 -11 28 -11q22 0 43 34q3 6 8 6q3 0 11 -6l36 -29q4 -3 4 -8zM429 10q5 -10 -7 -10 h-103q-5 0 -7 6l-24 72q-2 5 -10 5h-113q-8 0 -9 -5l-25 -72q-1 -6 -8 -6h-101q-11 0 -8 10l164 486q2 5 8 5h73q5 0 7 -5zM263 172l-25 99q-4 16 -7.5 36t-5 32t-1.5 13h-2q0 -27 -15 -81l-27 -99q-2 -8 8 -8h67q10 0 8 8z" />
<glyph unicode="&#xe4;" horiz-adv-x="444" d="M370 641q0 -26 -18 -44t-44 -18t-44 18t-18 44t18 44t44 18t44 -18t18 -44zM201 641q0 -26 -18 -44t-44 -18t-44 18t-18 44t18 44t44 18t44 -18t18 -44zM429 10q5 -10 -7 -10h-103q-5 0 -7 6l-24 72q-2 5 -10 5h-113q-8 0 -9 -5l-25 -72q-1 -6 -8 -6h-101q-11 0 -8 10 l164 486q2 5 8 5h73q5 0 7 -5zM263 172l-25 99q-4 16 -7.5 36t-5 32t-1.5 13h-2q0 -27 -15 -81l-27 -99q-2 -8 8 -8h67q10 0 8 8z" />
<glyph unicode="&#xe5;" horiz-adv-x="444" d="M429 10q5 -10 -7 -10h-103q-5 0 -7 6l-24 72q-2 5 -10 5h-113q-8 0 -9 -5l-25 -72q-1 -6 -8 -6h-101q-11 0 -8 10l155 459q-47 25 -47 83v29q0 42 27.5 68.5t72.5 26.5t72.5 -26.5t27.5 -68.5v-29q0 -58 -47 -83zM251 552v29q0 11 -9 20t-20 9t-20 -9t-9 -20v-29 q0 -11 9 -19.5t20 -8.5t20 8.5t9 19.5zM263 172l-25 99q-4 16 -7.5 36t-5 32t-1.5 13h-2q0 -27 -15 -81l-27 -99q-2 -8 8 -8h67q10 0 8 8z" />
<glyph unicode="&#xe6;" horiz-adv-x="628" d="M580 8q0 -8 -8 -8h-311q-8 0 -8 8v89q0 9 -9 9h-95q-8 0 -12 -7l-57 -93q-3 -6 -12 -6h-101q-15 0 -8 12l309 484q3 5 13 5h291q8 0 8 -8v-82q0 -7 -8 -7h-197q-10 0 -10 -9v-84q0 -8 10 -8h161q8 0 8 -7v-83q0 -8 -8 -8h-161q-10 0 -10 -8v-91q0 -8 10 -8h197q8 0 8 -8 v-82zM257 337h-2l-3 -8l-7 -19q-4 -10 -7 -16l-47 -93q-7 -10 5 -10h50q7 0 7 8v51q0 14 1 34.5t2 36t1 16.5z" />
<glyph unicode="&#xe7;" horiz-adv-x="472" d="M433 85q-52 -96 -154 -96q-9 0 -14 -9q-3 -9 3 -12q42 -23 42 -72v-8q0 -46 -32 -74.5t-79 -28.5h-59q-10 0 -10 10v66q0 10 10 10h59q7 0 12.5 5t5.5 12v8q0 7 -5.5 12.5t-12.5 5.5h-40q-16 0 -9 14l27 55q6 12 -6 15q-49 18 -78 48t-29 87v234q0 66 44 105.5t120 39.5 h51q56 0 91.5 -23t62.5 -73q6 -10 -1 -14l-83 -38q-7 -3 -13 5q-26 45 -62 45h-46q-24 0 -39 -13t-15 -34v-234q0 -20 15 -33.5t39 -13.5h46q35 0 62 46q5 9 13 6l83 -38q7 -4 1 -15z" />
<glyph unicode="&#xe8;" horiz-adv-x="456" d="M408 8q0 -8 -8 -8h-317q-7 0 -7 8v485q0 8 7 8h317q8 0 8 -8v-82q0 -7 -8 -7h-203q-9 0 -9 -9v-84q0 -8 9 -8h167q9 0 9 -7v-83q0 -8 -9 -8h-167q-9 0 -9 -8v-91q0 -8 9 -8h203q8 0 8 -8v-82zM326 565q0 -8 -10 -8h-68q-7 0 -16 7l-142 140q-7 7 -7 12q0 8 11 8h122 q9 0 14 -8l90 -138q6 -10 6 -13z" />
<glyph unicode="&#xe9;" horiz-adv-x="456" d="M416 716q0 -5 -7 -12l-142 -140q-9 -7 -16 -7h-68q-10 0 -10 8q0 3 6 13l90 138q5 8 14 8h122q11 0 11 -8zM408 8q0 -8 -8 -8h-317q-7 0 -7 8v485q0 8 7 8h317q8 0 8 -8v-82q0 -7 -8 -7h-203q-9 0 -9 -9v-84q0 -8 9 -8h167q9 0 9 -7v-83q0 -8 -9 -8h-167q-9 0 -9 -8v-91 q0 -8 9 -8h203q8 0 8 -8v-82z" />
<glyph unicode="&#xea;" horiz-adv-x="456" d="M382 565q0 -8 -11 -8h-81q-5 0 -8 5l-33 51q-3 6 -8 6q-4 0 -7 -6l-32 -51q-3 -5 -8 -5h-81q-11 0 -11 8q0 3 3 8l104 147q4 4 8 4h49q4 0 8 -4l105 -147q3 -5 3 -8zM408 8q0 -8 -8 -8h-317q-7 0 -7 8v485q0 8 7 8h317q8 0 8 -8v-82q0 -7 -8 -7h-203q-9 0 -9 -9v-84 q0 -8 9 -8h167q9 0 9 -7v-83q0 -8 -9 -8h-167q-9 0 -9 -8v-91q0 -8 9 -8h203q8 0 8 -8v-82z" />
<glyph unicode="&#xeb;" horiz-adv-x="456" d="M389 641q0 -26 -18 -44t-44 -18t-44 18t-18 44t18 44t44 18t44 -18t18 -44zM220 641q0 -26 -18 -44t-44 -18t-44 18t-18 44t18 44t44 18t44 -18t18 -44zM408 8q0 -8 -8 -8h-317q-7 0 -7 8v485q0 8 7 8h317q8 0 8 -8v-82q0 -7 -8 -7h-203q-9 0 -9 -9v-84q0 -8 9 -8h167 q9 0 9 -7v-83q0 -8 -9 -8h-167q-9 0 -9 -8v-91q0 -8 9 -8h203q8 0 8 -8v-82z" />
<glyph unicode="&#xec;" horiz-adv-x="264" d="M188 8q0 -8 -8 -8h-97q-7 0 -7 8v485q0 8 7 8h97q8 0 8 -8v-485zM188 565q0 -8 -10 -8h-68q-7 0 -16 7l-142 140q-7 7 -7 12q0 8 11 8h122q9 0 14 -8l90 -138q6 -10 6 -13z" />
<glyph unicode="&#xed;" horiz-adv-x="264" d="M317 716q0 -5 -7 -12l-142 -140q-9 -7 -16 -7h-68q-10 0 -10 8q0 3 6 13l90 138q5 8 14 8h122q11 0 11 -8zM188 8q0 -8 -8 -8h-97q-7 0 -7 8v485q0 8 7 8h97q8 0 8 -8v-485z" />
<glyph unicode="&#xee;" horiz-adv-x="264" d="M271 565q0 -8 -11 -8h-81q-5 0 -8 5l-33 51q-3 6 -8 6q-4 0 -7 -6l-32 -51q-3 -5 -8 -5h-81q-11 0 -11 8q0 3 3 8l104 147q4 4 8 4h49q4 0 8 -4l105 -147q3 -5 3 -8zM188 8q0 -8 -8 -8h-97q-7 0 -7 8v485q0 8 7 8h97q8 0 8 -8v-485z" />
<glyph unicode="&#xef;" horiz-adv-x="264" d="M276 641q0 -26 -18 -44t-44 -18t-44 18t-18 44t18 44t44 18t44 -18t18 -44zM107 641q0 -26 -18 -44t-44 -18t-44 18t-18 44t18 44t44 18t44 -18t18 -44zM188 8q0 -8 -8 -8h-97q-7 0 -7 8v485q0 8 7 8h97q8 0 8 -8v-485z" />
<glyph unicode="&#xf0;" horiz-adv-x="518" d="M454 152q0 -70 -44 -111t-118 -41h-209q-7 0 -7 8v183q0 11 -9 11h-40q-10 0 -10 10v81q0 10 10 10h39q10 0 10 12v178q0 8 7 8h209q74 0 118 -41t44 -111v-197zM343 144v212q0 18 -15 33t-36 15h-95q-9 0 -9 -9v-81q0 -11 11 -11h61q10 0 10 -10v-81q0 -10 -10 -10h-61 q-11 0 -11 -11v-85q0 -8 9 -8h95q21 0 36 14t15 32z" />
<glyph unicode="&#xf1;" horiz-adv-x="517" d="M419 657q0 -6 -18 -34q-38 -55 -84 -55q-22 0 -69 29l-18 11q-16 10 -26 10q-20 0 -41 -31q-3 -6 -8 -6q-3 0 -14 9l-34 25q-4 3 -4 8q0 6 14 28q37 58 87 58q31 0 68 -26l17 -12q15 -11 28 -11q22 0 43 34q3 6 8 6q3 0 11 -6l36 -29q4 -3 4 -8zM441 8q0 -8 -8 -8h-84 q-3 0 -8 6l-140 253q-16 28 -16 34h-3l1 -23q1 -23 2 -57t1 -62v-143q0 -8 -9 -8h-94q-7 0 -7 8v485q0 8 7 8h84q7 0 10 -6l139 -257l8 -16q4 -9 6 -15l3 -6h3q0 1 -1 23.5t-1.5 57.5t-0.5 65v146q0 8 7 8h93q8 0 8 -8v-485z" />
<glyph unicode="&#xf2;" horiz-adv-x="506" d="M442 133q0 -64 -45 -104t-118 -40h-51q-74 0 -119 40t-45 104v234q0 65 45.5 105t118.5 40h51q73 0 118 -40t45 -105v-234zM330 133v235q0 20 -14.5 33t-36.5 13h-51q-22 0 -38 -13.5t-16 -32.5v-235q0 -20 14.5 -33t39.5 -13h51q22 0 36.5 13t14.5 33zM304 565 q0 -8 -10 -8h-68q-7 0 -16 7l-142 140q-7 7 -7 12q0 8 11 8h122q9 0 14 -8l90 -138q6 -10 6 -13z" />
<glyph unicode="&#xf3;" horiz-adv-x="506" d="M436 716q0 -5 -7 -12l-142 -140q-9 -7 -16 -7h-68q-10 0 -10 8q0 3 6 13l90 138q5 8 14 8h122q11 0 11 -8zM442 133q0 -64 -45 -104t-118 -40h-51q-74 0 -119 40t-45 104v234q0 65 45.5 105t118.5 40h51q73 0 118 -40t45 -105v-234zM330 133v235q0 20 -14.5 33t-36.5 13 h-51q-22 0 -38 -13.5t-16 -32.5v-235q0 -20 14.5 -33t39.5 -13h51q22 0 36.5 13t14.5 33z" />
<glyph unicode="&#xf4;" horiz-adv-x="506" d="M395 565q0 -8 -11 -8h-81q-5 0 -8 5l-33 51q-3 6 -8 6q-4 0 -7 -6l-32 -51q-3 -5 -8 -5h-81q-11 0 -11 8q0 3 3 8l104 147q4 4 8 4h49q4 0 8 -4l105 -147q3 -5 3 -8zM442 133q0 -64 -45 -104t-118 -40h-51q-74 0 -119 40t-45 104v234q0 65 45.5 105t118.5 40h51 q73 0 118 -40t45 -105v-234zM330 133v235q0 20 -14.5 33t-36.5 13h-51q-22 0 -38 -13.5t-16 -32.5v-235q0 -20 14.5 -33t39.5 -13h51q22 0 36.5 13t14.5 33z" />
<glyph unicode="&#xf5;" horiz-adv-x="506" d="M409 657q0 -6 -18 -34q-38 -55 -84 -55q-22 0 -69 29l-18 11q-16 10 -26 10q-20 0 -41 -31q-3 -6 -8 -6q-3 0 -14 9l-34 25q-4 3 -4 8q0 6 14 28q37 58 87 58q31 0 68 -26l17 -12q15 -11 28 -11q22 0 43 34q3 6 8 6q3 0 11 -6l36 -29q4 -3 4 -8zM442 133q0 -64 -45 -104 t-118 -40h-51q-74 0 -119 40t-45 104v234q0 65 45.5 105t118.5 40h51q73 0 118 -40t45 -105v-234zM330 133v235q0 20 -14.5 33t-36.5 13h-51q-22 0 -38 -13.5t-16 -32.5v-235q0 -20 14.5 -33t39.5 -13h51q22 0 36.5 13t14.5 33z" />
<glyph unicode="&#xf6;" horiz-adv-x="506" d="M400 641q0 -26 -18 -44t-44 -18t-44 18t-18 44t18 44t44 18t44 -18t18 -44zM231 641q0 -26 -18 -44t-44 -18t-44 18t-18 44t18 44t44 18t44 -18t18 -44zM442 133q0 -64 -45 -104t-118 -40h-51q-74 0 -119 40t-45 104v234q0 65 45.5 105t118.5 40h51q73 0 118 -40t45 -105 v-234zM330 133v235q0 20 -14.5 33t-36.5 13h-51q-22 0 -38 -13.5t-16 -32.5v-235q0 -20 14.5 -33t39.5 -13h51q22 0 36.5 13t14.5 33z" />
<glyph unicode="&#xf7;" d="M321 402q0 -27 -20 -47t-47 -20t-47.5 20t-20.5 47t20 47t47 20t47.5 -20t20.5 -47zM468 210q0 -10 -10 -10h-409q-10 0 -10 10v66q0 10 10 10h409q10 0 10 -10v-66zM321 83q0 -27 -20 -47t-47 -20t-47.5 20t-20.5 47t20 47t47 20t47 -20t20 -47h1z" />
<glyph unicode="&#xf8;" horiz-adv-x="506" d="M442 134q0 -64 -45 -104t-118 -40h-51q-74 0 -119 39.5t-45 104.5v232q0 65 45.5 105t118.5 40h51q73 0 118 -40t45 -105v-232zM284 401q4 7 -4 9q-8 4 -25 4h-27q-22 0 -38 -14t-16 -33v-171q0 -15 1 -16q0 -5 3.5 -5t5.5 4zM330 133v169v9q-1 9 -1 10q0 5 -3.5 5 t-5.5 -4l-99 -220q-3 -8 5 -10q6 -4 25 -4h28q22 0 36.5 13t14.5 32z" />
<glyph unicode="&#xf9;" horiz-adv-x="517" d="M448 133q0 -64 -45.5 -104t-118.5 -40h-51q-74 0 -118.5 40t-44.5 104v360q0 8 7 8h95q7 0 7 -8v-360q0 -21 14.5 -33.5t39.5 -12.5h51q24 0 38 12.5t14 33.5v360q0 8 8 8h96q8 0 8 -8v-360zM316 565q0 -8 -10 -8h-68q-7 0 -16 7l-142 140q-7 7 -7 12q0 8 11 8h122 q9 0 14 -8l90 -138q6 -10 6 -13z" />
<glyph unicode="&#xfa;" horiz-adv-x="517" d="M444 716q0 -5 -7 -12l-142 -140q-9 -7 -16 -7h-68q-10 0 -10 8q0 3 6 13l90 138q5 8 14 8h122q11 0 11 -8zM448 133q0 -64 -45.5 -104t-118.5 -40h-51q-74 0 -118.5 40t-44.5 104v360q0 8 7 8h95q7 0 7 -8v-360q0 -21 14.5 -33.5t39.5 -12.5h51q24 0 38 12.5t14 33.5v360 q0 8 8 8h96q8 0 8 -8v-360z" />
<glyph unicode="&#xfb;" horiz-adv-x="517" d="M399 565q0 -8 -11 -8h-81q-5 0 -8 5l-33 51q-3 6 -8 6q-4 0 -7 -6l-32 -51q-3 -5 -8 -5h-81q-11 0 -11 8q0 3 3 8l104 147q4 4 8 4h49q4 0 8 -4l105 -147q3 -5 3 -8zM448 133q0 -64 -45.5 -104t-118.5 -40h-51q-74 0 -118.5 40t-44.5 104v360q0 8 7 8h95q7 0 7 -8v-360 q0 -21 14.5 -33.5t39.5 -12.5h51q24 0 38 12.5t14 33.5v360q0 8 8 8h96q8 0 8 -8v-360z" />
<glyph unicode="&#xfc;" horiz-adv-x="517" d="M404 641q0 -26 -18 -44t-44 -18t-44 18t-18 44t18 44t44 18t44 -18t18 -44zM235 641q0 -26 -18 -44t-44 -18t-44 18t-18 44t18 44t44 18t44 -18t18 -44zM448 133q0 -64 -45.5 -104t-118.5 -40h-51q-74 0 -118.5 40t-44.5 104v360q0 8 7 8h95q7 0 7 -8v-360 q0 -21 14.5 -33.5t39.5 -12.5h51q24 0 38 12.5t14 33.5v360q0 8 8 8h96q8 0 8 -8v-360z" />
<glyph unicode="&#xfd;" horiz-adv-x="395" d="M382 716q0 -5 -7 -12l-142 -140q-9 -7 -16 -7h-68q-10 0 -10 8q0 3 6 13l90 138q5 8 14 8h122q11 0 11 -8zM408 489l-154 -263v-218q0 -8 -9 -8h-95q-8 0 -8 8v218l-154 263q-7 12 7 12h110q7 0 11 -7l74 -138q8 -13 15 0l76 138q3 7 11 7h109q14 0 7 -12z" />
<glyph unicode="&#xfe;" horiz-adv-x="457" d="M431 269q0 -58 -45.5 -93.5t-118.5 -35.5h-70q-9 0 -9 -9v-123q0 -8 -8 -8h-97q-7 0 -7 8v485q0 8 8 8h97q8 0 8 -8v-49q0 -9 10 -9h68q75 0 119.5 -37t44.5 -104v-25zM321 275v19q0 18 -14 31t-37 13h-73q-9 0 -9 -8v-90q0 -9 9 -9h73q23 0 37 12t14 32z" />
<glyph unicode="&#xff;" horiz-adv-x="395" d="M347 641q0 -26 -18 -44t-44 -18t-44 18t-18 44t18 44t44 18t44 -18t18 -44zM178 641q0 -26 -18 -44t-44 -18t-44 18t-18 44t18 44t44 18t44 -18t18 -44zM408 489l-154 -263v-218q0 -8 -9 -8h-95q-8 0 -8 8v218l-154 263q-7 12 7 12h110q7 0 11 -7l74 -138q8 -13 15 0 l76 138q3 7 11 7h109q14 0 7 -12z" />
<glyph unicode="&#x152;" horiz-adv-x="770" d="M722 10q0 -10 -10 -10h-372q-30 -10 -62 -10h-29q-85 0 -135.5 49t-50.5 128v296q0 79 50.5 128t135.5 49h29q34 0 64 -10h370q10 0 10 -10v-85q0 -10 -10 -10h-244q-11 0 -11 -8q0 -2 1.5 -8t3.5 -18t2 -28v-81q0 -10 10 -10h195q10 0 10 -10v-85q0 -10 -10 -10h-195 q-10 0 -10 -10v-90q0 -15 -2 -27t-3.5 -18.5t-1.5 -8.5q0 -8 11 -8h244q10 0 10 -10v-85zM349 167v296q0 30 -20.5 51t-50.5 21h-29q-29 0 -50.5 -21.5t-21.5 -50.5v-296q0 -29 21.5 -50.5t50.5 -21.5h29q30 0 50.5 21t20.5 51z" />
<glyph unicode="&#x153;" horiz-adv-x="706" d="M658 8q0 -8 -8 -8h-307q-32 -10 -64 -10h-52q-73 0 -118 39.5t-45 104.5v232q0 65 45 105t118 40h52q33 0 65 -10h306q8 0 8 -8v-82q0 -7 -8 -7h-203q-11 0 -9 -10q4 -9 4 -38v-45q0 -8 9 -8h163q9 0 9 -7v-83q0 -8 -9 -8h-163q-9 0 -9 -8v-50q0 -31 -4 -40q-2 -9 9 -9 h203q8 0 8 -8v-82zM330 133v234q0 20 -14.5 33.5t-36.5 13.5h-52q-22 0 -37.5 -14t-15.5 -33v-234q0 -20 14.5 -32.5t38.5 -12.5h52q22 0 36.5 13t14.5 32z" />
<glyph unicode="&#x178;" horiz-adv-x="470" d="M469 622q0 -2 -7 -16l-163 -305q-7 -14 -7 -28v-263q0 -10 -10 -10h-95q-10 0 -10 10v264q0 13 -7 27l-163 305q-7 12 -7 16q0 8 11 8h111q5 0 9 -6l95 -196q3 -8 9 -8t9 8l95 196q4 6 9 6h110q11 0 11 -8zM368 755q0 -23 -16 -39t-39 -16t-39.5 16t-16.5 39t16.5 39 t39.5 16t39 -16t16 -39zM209 755q0 -23 -16 -39t-39 -16t-39.5 16t-16.5 39t16.5 39t39.5 16t39 -16t16 -39z" />
<glyph unicode="&#x2c6;" horiz-adv-x="500" d="M391 565q0 -8 -11 -8h-81q-5 0 -8 5l-33 51q-3 6 -8 6q-4 0 -7 -6l-32 -51q-3 -5 -8 -5h-81q-11 0 -11 8q0 3 3 8l104 147q4 4 8 4h49q4 0 8 -4l105 -147q3 -5 3 -8z" />
<glyph unicode="&#x2dc;" horiz-adv-x="500" d="M407 657q0 -6 -18 -34q-38 -55 -84 -55q-22 0 -69 29l-18 11q-16 10 -26 10q-20 0 -41 -31q-3 -6 -8 -6q-3 0 -14 9l-34 25q-4 3 -4 8q0 6 14 28q37 58 87 58q31 0 68 -26l17 -12q15 -11 28 -11q22 0 43 34q3 6 8 6q3 0 11 -6l36 -29q4 -3 4 -8z" />
<glyph unicode="&#x3bc;" horiz-adv-x="511" d="M442 10q0 -10 -10 -10h-85q-10 0 -10 9q0 11 -8 11q-1 0 -7 -2q-34 -18 -66 -18q-31 0 -61 8q-10 3 -10 -8v-150q0 -10 -10 -10h-95q-10 0 -10 10v598q0 10 10 10h95q10 0 10 -10v-271q0 -31 20.5 -51.5t50.5 -20.5t51 21t21 51v271q0 10 10 10h94q10 0 10 -10v-438z" />
<glyph unicode="&#x2000;" horiz-adv-x="415" />
<glyph unicode="&#x2001;" horiz-adv-x="831" />
<glyph unicode="&#x2002;" horiz-adv-x="415" />
<glyph unicode="&#x2003;" horiz-adv-x="831" />
<glyph unicode="&#x2004;" horiz-adv-x="277" />
<glyph unicode="&#x2005;" horiz-adv-x="207" />
<glyph unicode="&#x2006;" horiz-adv-x="138" />
<glyph unicode="&#x2007;" horiz-adv-x="138" />
<glyph unicode="&#x2008;" horiz-adv-x="103" />
<glyph unicode="&#x2009;" horiz-adv-x="166" />
<glyph unicode="&#x200a;" horiz-adv-x="46" />
<glyph unicode="&#x2010;" horiz-adv-x="278" d="M239 182q0 -10 -10 -10h-180q-10 0 -10 10v94q0 10 10 10h180q10 0 10 -10v-94z" />
<glyph unicode="&#x2011;" horiz-adv-x="278" d="M239 182q0 -10 -10 -10h-180q-10 0 -10 10v94q0 10 10 10h180q10 0 10 -10v-94z" />
<glyph unicode="&#x2013;" d="M492 210q0 -10 -10 -10h-457q-10 0 -10 10v66q0 10 10 10h457q10 0 10 -10v-66z" />
<glyph unicode="&#x2014;" horiz-adv-x="765" d="M750 210q0 -10 -10 -10h-715q-10 0 -10 10v66q0 10 10 10h715q10 0 10 -10v-66z" />
<glyph unicode="&#x2018;" horiz-adv-x="189" d="M170 612q0 -5 -6 -8q-18 -8 -28.5 -24.5t-10.5 -32.5q0 -10 10 -10h8q10 0 10 -10v-91q0 -10 -10 -10h-99q-10 0 -10 10v69q0 103 62 149q29 21 38 21q5 0 8 -6l22 -43q6 -10 6 -14z" />
<glyph unicode="&#x2019;" horiz-adv-x="189" d="M155 551q0 -103 -62 -149q-29 -21 -38 -21q-5 0 -8 6l-22 43q-6 10 -6 14q0 5 6 8q18 8 28.5 24.5t10.5 32.5q0 10 -10 10h-8q-10 0 -10 10v91q0 10 10 10h99q10 0 10 -10v-69z" />
<glyph unicode="&#x201a;" horiz-adv-x="189" d="M155 55q0 -103 -62 -149q-29 -21 -38 -21q-5 0 -8 6l-22 43q-6 10 -6 14q0 5 6 8q18 8 28.5 24.5t10.5 32.5q0 10 -10 10h-8q-10 0 -10 10v91q0 10 10 10h99q10 0 10 -10v-69z" />
<glyph unicode="&#x201c;" horiz-adv-x="346" d="M170 612q0 -5 -6 -8q-18 -8 -28.5 -24.5t-10.5 -32.5q0 -10 10 -10h8q10 0 10 -10v-91q0 -10 -10 -10h-99q-10 0 -10 10v69q0 103 62 149q29 21 38 21q5 0 8 -6l22 -43q6 -10 6 -14zM327 612q0 -5 -6 -8q-18 -8 -28.5 -24.5t-10.5 -32.5q0 -10 10 -10h8q10 0 10 -10v-91 q0 -10 -10 -10h-99q-10 0 -10 10v69q0 103 62 149q29 21 38 21q5 0 8 -6l22 -43q6 -10 6 -14z" />
<glyph unicode="&#x201d;" horiz-adv-x="346" d="M155 551q0 -103 -62 -149q-29 -21 -38 -21q-5 0 -8 6l-22 43q-6 10 -6 14q0 5 6 8q18 8 28.5 24.5t10.5 32.5q0 10 -10 10h-8q-10 0 -10 10v91q0 10 10 10h99q10 0 10 -10v-69zM312 551q0 -103 -62 -149q-29 -21 -38 -21q-5 0 -8 6l-22 43q-6 10 -6 14q0 5 6 8 q18 8 28.5 24.5t10.5 32.5q0 10 -10 10h-8q-10 0 -10 10v91q0 10 10 10h99q10 0 10 -10v-69z" />
<glyph unicode="&#x201e;" horiz-adv-x="346" d="M155 55q0 -103 -62 -149q-29 -21 -38 -21q-5 0 -8 6l-22 43q-6 10 -6 14q0 5 6 8q18 8 28.5 24.5t10.5 32.5q0 10 -10 10h-8q-10 0 -10 10v91q0 10 10 10h99q10 0 10 -10v-69zM312 55q0 -103 -62 -149q-29 -21 -38 -21q-5 0 -8 6l-22 43q-6 10 -6 14q0 5 6 8 q18 8 28.5 24.5t10.5 32.5q0 10 -10 10h-8q-10 0 -10 10v91q0 10 10 10h99q10 0 10 -10v-69z" />
<glyph unicode="&#x2022;" horiz-adv-x="500" d="M409 305q0 -66 -43 -107t-114 -41h-4q-71 0 -114 41t-43 107v20q0 66 43 106.5t114 40.5h4q71 0 114 -40.5t43 -106.5v-20z" />
<glyph unicode="&#x2026;" horiz-adv-x="1000" d="M268 57q0 -27 -20 -47t-47 -20t-47 20t-20 47t20 47t47 20t47 -20t20 -47zM566 57q0 -27 -20 -47t-47 -20t-47 20t-20 47t20 47t47 20t47 -20t20 -47zM864 57q0 -27 -20 -47t-47 -20t-47 20t-20 47t20 47t47 20t47 -20t20 -47z" />
<glyph unicode="&#x202f;" horiz-adv-x="166" />
<glyph unicode="&#x2039;" horiz-adv-x="343" d="M284 92q0 -11 -8 -11q-4 0 -8 3l-216 153q-4 4 -4 8v71q0 4 4 8l216 154q4 3 8 3q8 0 8 -11v-89q0 -4 -4 -8l-118 -84q-5 -3 -5 -8q0 -3 5 -8l118 -85q4 -4 4 -8v-88z" />
<glyph unicode="&#x203a;" horiz-adv-x="343" d="M295 245q0 -4 -4 -8l-216 -153q-5 -3 -8 -3q-8 0 -8 11v88q0 4 4 8l117 85q5 5 5 8t-5 8l-117 84q-4 4 -4 8v89q0 11 8 11q3 0 8 -3l216 -154q4 -4 4 -8v-71z" />
<glyph unicode="&#x205f;" horiz-adv-x="207" />
<glyph unicode="&#x20ac;" d="M489 105q-18 -37 -39 -61q-49 -54 -137 -54h-49q-85 0 -135.5 49t-50.5 128v10q0 10 -10 10h-58q-10 0 -10 10v76q0 10 10 10h58q10 0 10 10v46q0 10 -10 10h-58q-10 0 -10 10v76q0 10 10 10h58q10 0 10 10v8q0 79 50.5 128t135.5 49h49q83 0 130 -47q22 -21 46 -65 q5 -9 -5 -14l-87 -43q-8 -4 -13 5q-25 59 -71 59h-49q-29 0 -50.5 -21.5t-21.5 -50.5v-8q0 -10 10 -10h117q10 0 10 -10v-76q0 -10 -10 -10h-117q-10 0 -10 -10v-46q0 -10 10 -10h117q10 0 10 -10v-76q0 -10 -10 -10h-117q-10 0 -10 -10v-10q0 -29 21.5 -50.5t50.5 -21.5h49 q46 0 71 61q5 9 13 5l87 -43q9 -5 5 -13z" />
<glyph unicode="&#x2122;" horiz-adv-x="428" d="M378 370q0 -10 -10 -10h-12q-10 0 -10 10v72q0 12 -9 12q-5 0 -10 -7l-25 -41q-3 -5 -9 -5h-4q-5 0 -8 5l-27 41q-5 7 -10 7q-8 0 -8 -12v-72q0 -10 -10 -10h-12q-10 0 -10 10v168q0 10 10 10h12q6 0 9 -5l47 -81q5 -7 9 -7t9 7l47 81q3 5 9 5h12q10 0 10 -10v-168z M166 527q0 -10 -10 -10h-27q-10 0 -10 -10v-137q0 -10 -10 -10h-12q-10 0 -10 10v137q0 10 -10 10h-27q-10 0 -10 10v11q0 10 10 10h106q10 0 10 -10v-11z" />
</font>
</defs>
</svg>
